<svg xmlns="http://www.w3.org/2000/svg" viewBox="0 0 2783.64 3551.94"><defs><style>.cls-1{fill:#0000ce;}.cls-2{fill:#af0000;}.cls-3{fill:#c34319;}.cls-4{fill:#c1806f;}.cls-5{fill:#333;}.cls-6{fill:#eaeaea;}.cls-7{fill:#aaa;}.cls-8{fill:#fff;}.cls-9{fill:#f4c89d;}.cls-10{fill:#f7931e;}.cls-11{fill:#bcaf9b;}.cls-12{fill:#bab6b1;}.cls-13{fill:#eddb00;}.cls-14{fill:#eae5b9;}.cls-15{fill:#1e1e1e;}.cls-16{fill:#754aba;}.cls-17{fill:#917db7;}.cls-18{fill:#474747;}.cls-19{fill:#5b5b5b;}.cls-20{fill:#1c86e5;}.cls-21{fill:red;}.cls-22{fill:#ff811a;}.cls-23{fill:#65d81a;}.cls-24{fill:#7d1bc9;}.cls-25{fill:#e8e31a;}.cls-26{stroke:#000;stroke-miterlimit:10;stroke-width:10.39px;}.cls-27{fill:#ffec8f;}.cls-28{fill:#fff9de;}</style></defs><title>icons</title><g id="Layer_2" data-name="Layer 2"><g id="Layer_1-2" data-name="Layer 1"><path class="cls-1" d="M2441.63,212.85l-99.56,177.69h92.55l-211.45,294-.66-.46,68.62-222.45h-59.87c.53-2,.9-3.73,1.41-5.34q37.81-119.54,75.62-239.08a7.54,7.54,0,0,1,1.77-3.47,3.38,3.38,0,0,1,2.49-.8C2315,213.05,2368.27,213,2441.63,212.85Z"/><path class="cls-2" d="M2455,196.12,2355.45,373.8H2448l-211.45,294-.66-.46,68.62-222.45h-59.87c.53-2,.9-3.73,1.41-5.34q37.81-119.54,75.62-239.08a7.54,7.54,0,0,1,1.77-3.47,3.38,3.38,0,0,1,2.49-.8C2328.38,196.32,2381.65,196.24,2455,196.12Z"/><path class="cls-3" d="M2619.53,154.33c-10-26.18-28.62-45.37-50.88-61.53-3.42-2.48-6.32-5.66-9.47-8.51l1.14-2c6.6,2.34,13.08,5.1,19.84,6.8,2.73.69,6-1,9.09-1.54-.82-3.25-.62-7.43-2.61-9.6-13.78-15-31.44-23.87-50.43-30.42-1.93-.67-5.09-1.21-5.44-2.46-2.08-7.2-8.52-6.92-13.73-8.78-6.2-2.22-12.9-3.55-18.55-6.73-28.24-15.9-57.87-25.15-90.71-21.21a20,20,0,0,1-8.09-.89A160.49,160.49,0,0,0,2338.81.5c-29.91,2.37-57.74,11.1-80.34,31.54a53.81,53.81,0,0,1-26.89,13.59c-1.75-9.54-5.1-11-13.21-5.74a164.85,164.85,0,0,0-58.52,64.28c-17.7,34.38-24.07,71.51-26,109.59-2.36,45.81,1.49,91.37,6.22,136.89,2.12,20.37,3.82,40.79,5.8,62.12l-1.54-.58c.17,4,.21,7.9.06,11.8,7.83,2.9,16.46,4,24.77,5.75-1.12-22.94,1.79-45.09,11.65-66.19,11.13-23.82,11.21-48.62,6.32-73.89-2.78-14.39-3.62-28.84.43-43.22,5.3-18.82,17.23-31.85,35-39.48,2.68-1.16,7.77-1.23,9.42.46,8.72,9,20.07,11.94,31.37,13,19.22,1.74,38.61,1.57,57.93,2.19.88,0,1.77,0,3.55,0l-.23.51c27.17-3.55,54.15-8.39,81.21-12.72,13.45-2.15,26.92-4.16,40.43-5.86,7-.88,15.06-2.89,22.79-3.27,2.29-1.91,5-2.63,9-1.53,7.09,2,14.59,2.54,21.55,4.83,33.82,11.16,51.51,40.78,48.19,77.26a354,354,0,0,0-.65,54.5c.6,9.32,4.43,18.94,8.76,27.41a143.78,143.78,0,0,1,15.72,61.06c6.34-3.62,12.5-7.58,18.59-11.66,2.89-38.38,6.06-76.74,8.63-115.13s3.23-76.62-1.89-114.8c-1.55-11.59-3.71-23.1-5.59-34.65a89.22,89.22,0,0,1,17.66,14.09c3.36,3.39,7.14,4.61,10,1.06C2620.59,161.65,2620.58,157.07,2619.53,154.33Z"/><path class="cls-3" d="M2228.21,752.16l-.06,0c-1.49-16.09-4.18-43.46-5.65-57.58-3.82-36.89-10.28-90-21.75-158.91L2174.94,534c.25,2.64.52,5.49.78,8.52-.12.67-.23,1.35-.36,2a203.63,203.63,0,0,1-6.61,36.26c-1.1,16.14-2.31,32.26-4,48.35-5.25,51.43-13.73,102.1-40,148-1.27,2.21,0,5.88.11,8.87,3-.14,6.65.77,8.94-.59,11.52-6.81,22.69-14.23,34-21.39,1.34-.85,2.84-1.46,5.74-2.93-4.24,7.37-7.93,13-10.72,19-1.28,2.77-.81,6.35-1.13,9.56,3.21.11,6.83,1.25,9.56.15,15.85-6.34,31.49-13.22,47.21-19.88,3.56-1.51,7.16-3,10.85-4.49C2229,761,2228.63,756.57,2228.21,752.16Z"/><path class="cls-3" d="M2528.6,748.81l.06,0c1.49-16.09,4.18-43.46,5.65-57.58,3.82-36.89,10.28-90,21.75-158.91l25.81-1.67c-.25,2.64-.52,5.49-.78,8.52.12.67.23,1.35.36,2a203.63,203.63,0,0,0,6.61,36.26c1.1,16.14,2.31,32.26,4,48.35,5.25,51.43,13.73,102.1,40,148,1.27,2.21,0,5.88-.11,8.87-3-.14-6.65.77-8.94-.59-11.52-6.81-22.69-14.23-34-21.39-1.34-.85-2.84-1.46-5.74-2.93,4.24,7.37,7.93,13,10.72,19,1.28,2.77.81,6.35,1.13,9.56-3.21.11-6.83,1.25-9.56.15-15.85-6.34-31.49-13.22-47.21-19.88-3.56-1.51-7.16-3-10.85-4.49C2527.81,757.64,2528.17,753.22,2528.6,748.81Z"/><path class="cls-4" d="M2162.5,194.51A199.94,199.94,0,0,1,2193,102c1.73-2.74-2.61-5.26-4.33-2.53a205.29,205.29,0,0,0-31.23,95.08c-.23,3.22,4.79,3.21,5,0Z"/><path class="cls-4" d="M2286.16,43.55a123.56,123.56,0,0,1,52.61-10.78c18.55.32,35.26,5.74,52.54,11.9,15.11,5.39,31.58,10.74,47.69,6.62,7.61-1.94,16.74-9,24.13-3.09,5.41,4.32,7.13,12.39,8.39,18.83.62,3.17,5.46,1.83,4.84-1.33-1.81-9.21-5.34-21.39-15.57-24.33-6.46-1.85-12.4,1.3-18.3,3.54a46.86,46.86,0,0,1-22.7,2.36c-15.48-2-29.84-8.87-44.6-13.53a128.14,128.14,0,0,0-43.37-5.92,129.7,129.7,0,0,0-48.21,11.39c-2.94,1.32-.39,5.64,2.53,4.33Z"/><path class="cls-4" d="M2246.42,172.74c55.1,16.32,119.89,27.23,170-8.71,2.6-1.87.1-6.22-2.53-4.33-49.06,35.19-112.24,24.17-166.14,8.21-3.1-.92-4.43,3.92-1.33,4.84Z"/><path class="cls-4" d="M2229.4,117.15a28.81,28.81,0,0,1,14.66-26.76c2.81-1.59.28-5.93-2.53-4.33a33.8,33.8,0,0,0-17.15,31.1c.16,3.21,5.18,3.23,5,0Z"/><path class="cls-4" d="M2328,146.53c30.69-2.46,63.07,5.76,92.59-5.88,13.63-5.37,25.75-14.45,39.93-18.43,12.12-3.4,27.73-2.51,35.7,8.57,1.87,2.6,6.22.1,4.33-2.53-7-9.79-18.78-13.43-30.49-12.7-14.84.92-27.6,8.89-40.51,15.49-15.86,8.11-32.12,11-49.84,10.94-17.25,0-34.46-1.85-51.7-.47-3.2.26-3.22,5.28,0,5Z"/><path class="cls-4" d="M2179.28,623.43c1.06,38.66,1.93,79.41-16.06,114.79-1.46,2.87,2.87,5.42,4.33,2.53,18.43-36.24,17.84-77.7,16.75-117.32-.09-3.22-5.11-3.24-5,0Z"/><path class="cls-4" d="M2193.25,671.08c2.77,27.65,5.34,58.61-11.89,82.39-1.9,2.62,2.45,5.13,4.33,2.53,17.75-24.49,15.43-56.42,12.58-84.92-.32-3.18-5.34-3.22-5,0Z"/><path class="cls-4" d="M2574,650.24a139.5,139.5,0,0,0,20.26,79.93c1.68,2.75,6,.23,4.33-2.53a134.73,134.73,0,0,1-19.58-77.4c.17-3.23-4.85-3.22-5,0Z"/><path class="cls-4" d="M2552.13,672.62a139,139,0,0,0,12.35,72.53c1.36,2.93,5.68.38,4.33-2.53a134.13,134.13,0,0,1-11.66-70c.32-3.21-4.7-3.19-5,0Z"/><path class="cls-4" d="M2549.12,216.77A105,105,0,0,1,2566.79,278c-.09,3.23,4.93,3.23,5,0a109.68,109.68,0,0,0-18.36-63.75c-1.78-2.67-6.13-.16-4.33,2.53Z"/><path class="cls-4" d="M2555.92,111.46a49.78,49.78,0,0,1,38.83,28.11c1.39,2.91,5.72.37,4.33-2.53a54.82,54.82,0,0,0-43.16-30.59c-3.2-.38-3.17,4.64,0,5Z"/><path d="M168.53,656.18c-32.41-107.11-40.91-215.41-38.09-326.47,10,.93,18.5,1.78,27,2.5,53.56,4.59,104.14-8.2,153.33-27.44,43.19-16.89,85.79-35.29,128.86-52.48a218.42,218.42,0,0,1,35.21-10.34c14.26-3.05,22.82.7,28,14.45,5.74,15.26,10.51,31.3,12.68,47.4,7.64,56.71,4.78,113.61-.3,170.35-4.51,50.42-11.43,100.53-24.73,149.53-2.86,10.54-6.53,20.87-10.29,32.77,9.75-3.62,18.34-6.77,26.9-10,17.37-6.54,34.67-13.28,52.14-19.56,5-1.79,6.72-4.45,7.16-9.7,3.46-40.57,7.12-81.13,11.21-121.64.42-4.18,3.1-9.46,6.43-11.77,12.64-8.74,18.46-20.44,21.49-35.38,10.84-53.49,20-107.13,19.71-161.92a234.54,234.54,0,0,0-27.53-110.4c-18.31-34.52-46.94-54.36-84.65-63.68C455.87,98.29,398.72,83.81,342.23,67.19,309.9,57.67,279,43.45,247.32,31.59,123.45-14.81,31.77,67.46,6.93,159.91c-8,29.85-11.36,60.93,2.73,88.81,11,21.81,13.62,43.57,15,66.76C27.52,364,36.83,411.6,46.77,459.1c1.75,8.36,5.68,14.42,12.42,18.67,9.75,6.14,13.21,14.74,14.05,26,2.67,35.83,6.48,71.57,9.3,107.39.73,9.28,3.34,14.65,13.13,17.91C120,637.19,143.8,646.86,168.53,656.18Z"/><path class="cls-5" d="M78.23,201.72c23.32,50.13,86.87,74.13,137.54,52.6,16-6.81,30.36-16.8,45.23-25.73a299.41,299.41,0,0,1,50.52-24.07,460.58,460.58,0,0,1,109.31-25.29c38.47-4.13,81.76.64,108.46,31.85,2.26,2.64,6.06-1.19,3.81-3.81-21-24.61-53.78-34.32-85.24-34.81-18.94-.29-37.8,2.4-56.4,5.7a537.68,537.68,0,0,0-53,12,363.74,363.74,0,0,0-49.89,18c-16.43,7.39-31.62,16.66-46.91,26.11-14.37,8.87-29.29,17.41-46,20.94a98,98,0,0,1-41.36-.46c-30.67-6.81-58.07-27-71.42-55.7-1.46-3.14-6.11-.41-4.66,2.72Z"/><path class="cls-5" d="M96.14,136.2c2.26,17.74,9.71,35.18,24.34,46.17,14.3,10.75,32.35,13.11,48.76,6,17.39-7.59,31-21.77,47.95-30.33a143.5,143.5,0,0,1,119-4.16c3.16,1.34,5.91-3.31,2.72-4.66a149.1,149.1,0,0,0-102.49-4.78c-17,5.34-32,13.9-46.24,24.37-15.3,11.22-31.86,22.6-51.72,16.78-21.91-6.41-34.21-27.83-37-49.36-.43-3.4-5.83-3.44-5.39,0Z"/><path class="cls-5" d="M129.35,92a25.86,25.86,0,0,0,10.24,31.17c11.24,6.93,25.5,4.77,36.93-.41,15-6.78,27.65-17.59,42.94-23.93,14.94-6.2,31.24-9.55,47.43-8,17.14,1.61,33.6,8.8,45.57,21.28,2.41,2.51,6.22-1.31,3.81-3.81-18.68-19.49-46.61-26.1-72.74-22-14.84,2.35-29.1,8-42.11,15.44S176,120.13,160.66,121.9c-7.61.88-16-.48-21.73-6-6-5.86-7.33-14.81-4.38-22.47,1.25-3.24-4-4.64-5.2-1.43Z"/><path class="cls-5" d="M59.47,327.62A127.34,127.34,0,0,0,83.4,419c2,2.76,6.73.07,4.66-2.72a122.93,122.93,0,0,1-23.2-88.65c.44-3.43-5-3.4-5.39,0Z"/><path class="cls-5" d="M578.47,330.55A174.82,174.82,0,0,1,580,409.41c-.72,3.39,4.48,4.83,5.2,1.43a181.12,181.12,0,0,0-1.49-81.73c-.84-3.36-6-1.94-5.2,1.43Z"/><path class="cls-5" d="M549.43,483.55a156.36,156.36,0,0,1-8.52,79.18c-1.23,3.25,4,4.65,5.2,1.43a161.77,161.77,0,0,0,8.52-82.05c-.52-3.42-5.72-2-5.2,1.43Z"/><path class="cls-5" d="M60,414.12A104,104,0,0,0,95.81,480c2.64,2.23,6.47-1.57,3.81-3.81a98.59,98.59,0,0,1-34.26-62.07c-.45-3.39-5.85-3.44-5.39,0Z"/><path class="cls-6" d="M981.62,252.83c5.74,1.28,7.31-1.14,7.87-6q6-51.71,12.55-103.37c1.72-13.69,13.06-21.29,26-17.84a19.38,19.38,0,0,1,14.62,20.43c-1.14,14.61-2.91,29.17-4.64,43.73-2.47,20.81-5.14,41.59-7.79,62.91l7.4.38c.38-2.13.75-4.06,1.07-6q8.74-54.16,17.43-108.32c.64-4,.83-8.12,1.32-12.18,1.5-12.34,11.26-20.37,23-19s19.6,11.59,17.71,23.92q-9.42,61.65-19.42,123.21c-.9,5.5.29,8,6.19,8.33,2.88-12.57,5.62-25.25,8.71-37.84q8.3-33.79,17-67.49A35.87,35.87,0,0,1,1114,149a20.37,20.37,0,0,1,24.61-8.85,19.88,19.88,0,0,1,12.86,23.17c-4.08,17.15-9.26,34-13.09,51.23-7.8,35-15.15,70-22.29,105.12-.91,4.49-.13,9.64,1.11,14.15,1.49,5.43,5.12,6.12,9,2.11a41.39,41.39,0,0,0,6.1-8.52c8.28-14.6,17.53-28.44,30.54-39.32,8.68-7.26,18.18-13.06,29.93-13.24a24.85,24.85,0,0,1,10.12,2.3c5.52,2.45,7.47,7.1,5.5,12.9-1.3,3.82-2.89,7.8-5.35,10.91-23.67,29.87-39.25,64.5-57.8,97.39a530,530,0,0,1-29.63,46.24c-4.94,7-11.76,13-18.71,18.05-11.5,8.45-17.84,19-19.89,33.23-3,20.94-7.26,41.7-11,62.53l-1.13,6.35L930.05,540.67l1-5.63c3.75-21,7.24-42.09,11.42-63,1.29-6.43.15-11.31-3.73-16.39-12.26-16.06-17.79-34.83-18.1-54.58-.22-14.37,2-28.86,4.1-43.15,2.35-16,6.4-31.68,8.6-47.66,3.11-22.58,5.95-45.25,7.5-68,1.58-23.1,1.51-46.31,2.07-69.47.25-10.45,9-19.57,19.45-20,11-.46,20.76,7.24,21.28,18.41.68,14.61.37,29.28,0,43.91C983.34,227.68,982.33,240.24,981.62,252.83Z"/><path class="cls-7" d="M1060.22,420.62c1.49-32.38,22.11-60.93,53.09-71.22,2.23-.74,1.27-4.28-1-3.53-32.58,10.82-54.22,40.67-55.78,74.75-.11,2.36,3.55,2.35,3.66,0Z"/><path class="cls-7" d="M983.59,430.94a175.76,175.76,0,0,0-9.69-60.09c-3.06-9-6.2-17.86-6.29-27.46-.1-11.12,3.15-21.86,8.38-31.58,1.12-2.08-2.05-3.94-3.17-1.85a71.54,71.54,0,0,0-8.71,28.46c-.73,9.65,1.3,18.76,4.35,27.85,7.17,21.37,11.82,42,11.46,64.67,0,2.37,3.64,2.37,3.68,0Z"/><path class="cls-7" d="M984,280.17a21.87,21.87,0,0,1,17.92,3c2,1.3,3.83-1.88,1.85-3.17A25.57,25.57,0,0,0,983,276.63c-2.29.6-1.32,4.14,1,3.54Z"/><path class="cls-7" d="M1029.16,280.58a26.57,26.57,0,0,0,9.18-.63c3.55-.71,7.49-1.35,10.11,1.75,1.53,1.81,4.12-.81,2.6-2.6-5.62-6.62-14-1.1-20.92-2.06-2.31-.32-3.31,3.22-1,3.54Z"/><path class="cls-7" d="M1075.23,282.13a20,20,0,0,1,20.7,6c1.59,1.76,4.18-.85,2.6-2.6a23.75,23.75,0,0,0-24.27-6.92c-2.27.65-1.31,4.19,1,3.54Z"/><path class="cls-7" d="M951.95,510.83a121.06,121.06,0,0,1,55.87,7.23c2.21.84,3.17-2.71,1-3.54a123.54,123.54,0,0,0-56.84-7.36c-2.33.24-2.35,3.92,0,3.68Z"/><path d="M1658.25,547.21c-46.05-.53-90.49-10.43-134.38-23.33-57-16.75-113.62-34.62-167-61.29-39.11-19.54-75-43.21-104.11-76.6-19.85-22.76-19.75-41.47,3.27-61.25,27.33-23.48,58.4-40.85,91.77-54,6.82-2.7,9.94-6.31,11.38-13.42,2.92-14.44,7.42-28.56,10.41-43,5.87-28.35,23.69-46.06,50.08-54.81,57.87-19.2,116.62-25.22,176.34-8.35,22.89,6.46,40.28,20.8,55.56,38.25a72.34,72.34,0,0,0,5,5.84c19.39,17.84,30.71,40,35.25,65.75,1.35,7.63,5.19,11.87,12.71,14.89,47.16,19,87.57,48.5,125.11,82.13a108.7,108.7,0,0,1,20.71,25.17c18,30.36,8.08,58.47-10,84.5-24.34,35-59.6,54.84-99.49,67.22A271,271,0,0,1,1658.25,547.21Z"/><path class="cls-8" d="M1712.78,296.64c1.42,13.58,2.55,27,4.29,40.38,2.33,17.92-4.09,32.14-17.42,43.65-16,13.8-34.91,22-55.2,26.3-78.58,16.79-155.39,9-230.32-18.81-21.46-8-41.82-18.37-58-35.35-10.88-11.41-15.84-24.51-13.39-40.44,2.14-13.89,3.48-27.9,5.35-43.36,22.84,37.36,59.77,49.65,96.75,60.72,63.53,19,128.45,22.73,193.88,12.27a121.08,121.08,0,0,0,61.17-29C1704.8,308.67,1708.19,302.57,1712.78,296.64Z"/><path class="cls-5" d="M1307.73,312.37c-9.92,1.89-14.41,11.59-16.34,20.59-2.37,11.05-3.73,24.47,0,35.32,7.83,22.53,35.14,22.16,50.48,36.75,2.7,2.57,6.8-1.52,4.1-4.1-6.65-6.33-15-9.93-23.28-13.51s-17.31-7.21-22.64-14.74c-6.59-9.29-5.31-22-4-32.68,1-8.39,3.45-20.19,13.2-22,3.66-.7,2.11-6.28-1.54-5.59Z"/><path class="cls-5" d="M1517.28,286.37c39.42,2.77,80.31,5.27,118-9,3.45-1.31,2-6.91-1.54-5.59-37.21,14.12-77.5,11.55-116.44,8.81-3.72-.26-3.7,5.53,0,5.79Z"/><path class="cls-5" d="M1446.22,197A141.22,141.22,0,0,1,1494.66,176a136.23,136.23,0,0,1,26.33-3.21c7.51-.18,17.17-.08,21.77,6.94,2,3.11,7.05.21,5-2.92-9.53-14.53-33.62-10.18-47.94-7.72A145.42,145.42,0,0,0,1443.3,192c-3.07,2.07-.18,7.1,2.92,5Z"/><path class="cls-5" d="M1447.71,461c14.79-1.15,28.75,3.6,42.62,8.11a333.75,333.75,0,0,0,42.6,10.95,325.54,325.54,0,0,0,86.84,4.21c3.69-.31,3.72-6.11,0-5.79a320.31,320.31,0,0,1-89-4.7,355.52,355.52,0,0,1-41.52-11.09c-13.49-4.39-27.2-8.59-41.55-7.47-3.69.29-3.72,6.08,0,5.79Z"/><path class="cls-5" d="M1598,510.86c30,1.62,60.8,5.67,90.51-.48,28.79-6,55.53-19.11,81.15-33.12,3.27-1.79.35-6.79-2.92-5-25.22,13.79-51.43,26.67-79.76,32.54-29.12,6-59.56,1.86-89,.28-3.73-.2-3.71,5.59,0,5.79Z"/><rect class="cls-9" x="148.22" y="1091.9" width="105.5" height="7.36" transform="translate(467.17 14) rotate(24.22)"/><path class="cls-9" d="M521,1151,345,1135.13l-.77,8.55,175.94,15.82c3.34.7,6.16-1.36,6.46-3.42S524.62,1150.95,521,1151Z"/><path class="cls-9" d="M224.32,1000,48.38,984.2l-.77,8.55,175.94,15.82c3.19-.11,5.29-2.83,4.89-5.1A4.62,4.62,0,0,0,224.32,1000Z"/><path class="cls-10" d="M130.78,1163.11c-.3-.42-.51-.68-.68-1q-21.49-34.27-43-68.55a1.51,1.51,0,0,0-1.83-.82q-40,6.7-79.91,13.35l-1.18.18,1.89-2.23q25.33-29.54,50.68-59.06a1.49,1.49,0,0,0,.18-2q-18.4-35.07-36.74-70.17c-.18-.34-.34-.68-.68-1.38l1.44.65q36.5,16.42,73,32.86a1.63,1.63,0,0,0,2.23-.42q27.77-29.19,55.6-58.32c.26-.27.55-.52,1-.94-.28,3.38-.53,6.56-.8,9.74q-3,36-6,71.94a1.57,1.57,0,0,0,1.1,1.88q36.41,16.33,72.79,32.72l1.67.75c-.67.19-1,.31-1.41.41l-75.42,18.71c-2.68.66-2.67.66-3,3.28q-5.3,38.55-10.61,77.1C131,1162.19,130.89,1162.55,130.78,1163.11Z"/><path class="cls-10" d="M327.16,1252.42c-.3-.42-.51-.68-.68-1q-21.49-34.27-43-68.55a1.51,1.51,0,0,0-1.83-.82q-40,6.7-79.91,13.35l-1.18.18,1.89-2.23q25.33-29.54,50.68-59.06a1.49,1.49,0,0,0,.18-2q-18.4-35.07-36.74-70.17c-.18-.34-.34-.68-.68-1.38l1.44.65q36.5,16.42,73,32.86a1.63,1.63,0,0,0,2.23-.42q27.77-29.19,55.6-58.32c.26-.27.55-.52,1-.94-.28,3.38-.53,6.56-.8,9.74q-3,36-6,71.94a1.57,1.57,0,0,0,1.1,1.88q36.41,16.33,72.79,32.72l1.67.75c-.67.19-1,.31-1.41.41L341,1170.74c-2.68.66-2.67.66-3,3.28q-5.3,38.55-10.61,77.1C327.36,1251.49,327.27,1251.86,327.16,1252.42Z"/><path class="cls-10" d="M48.18,1006.32A83.28,83.28,0,0,1,70,1034.07c1,2.13,4.22.26,3.18-1.86a85.7,85.7,0,0,0-22.44-28.49c-1.81-1.5-4.43,1.09-2.6,2.6Z"/><path class="cls-9" d="M36.49,1087.47A132.15,132.15,0,0,1,60,1057.26c1.71-1.64-.89-4.24-2.6-2.6a135.57,135.57,0,0,0-24.1,31c-1.17,2.06,2,3.92,3.18,1.86Z"/><path class="cls-9" d="M44.29,996.31a51.83,51.83,0,0,1,26.23,31.06c.7,2.26,4.25,1.29,3.55-1a55.5,55.5,0,0,0-27.92-33.26c-2.11-1.07-4,2.1-1.86,3.18Z"/><path class="cls-9" d="M237.92,1085.68a104.41,104.41,0,0,1,17,23.93c1.09,2.1,4.27.24,3.18-1.86a107.83,107.83,0,0,0-17.59-24.67c-1.63-1.72-4.23.88-2.6,2.6Z"/><path class="cls-9" d="M251.84,1149.65a267.9,267.9,0,0,0-24.41,26.4c-1.47,1.83,1.11,4.45,2.6,2.6a267.9,267.9,0,0,1,24.41-26.4c1.72-1.63-.88-4.23-2.6-2.6Z"/><path class="cls-9" d="M388.38,1146.69a188.73,188.73,0,0,0-48.56,5.86c-2.29.58-1.32,4.14,1,3.55a184.78,184.78,0,0,1,47.58-5.73c2.37,0,2.37-3.66,0-3.68Z"/><rect class="cls-6" x="29.15" y="1322.45" width="774.49" height="315.61" rx="24.92" ry="24.92"/><rect class="cls-8" x="68.6" y="1395.12" width="54.43" height="199.33" rx="26.04" ry="26.04"/><rect class="cls-8" x="186.41" y="1395.12" width="54.43" height="199.33" rx="26.04" ry="26.04"/><rect class="cls-8" x="127.5" y="1395.12" width="54.43" height="199.33" rx="26.04" ry="26.04"/><rect x="99.74" y="1395.12" width="39.45" height="97.59" rx="19.73" ry="19.73"/><rect x="170.34" y="1395.12" width="39.45" height="97.59" rx="19.73" ry="19.73"/><rect class="cls-8" x="245.31" y="1395.12" width="54.43" height="199.33" rx="26.04" ry="26.04"/><rect class="cls-8" x="363.13" y="1395.12" width="54.43" height="199.33" rx="26.04" ry="26.04"/><rect class="cls-8" x="304.22" y="1395.12" width="54.43" height="199.33" rx="26.04" ry="26.04"/><rect x="282.46" y="1395.12" width="39.45" height="97.59" rx="19.73" ry="19.73"/><rect class="cls-8" x="422.03" y="1395.12" width="54.43" height="199.33" rx="26.04" ry="26.04"/><rect class="cls-8" x="539.84" y="1395.12" width="54.43" height="199.33" rx="26.04" ry="26.04"/><rect class="cls-8" x="480.94" y="1395.12" width="54.43" height="199.33" rx="26.04" ry="26.04"/><rect class="cls-8" x="598.75" y="1395.12" width="54.43" height="199.33" rx="26.04" ry="26.04"/><rect class="cls-8" x="716.56" y="1395.12" width="54.43" height="199.33" rx="26.04" ry="26.04"/><rect class="cls-8" x="657.66" y="1395.12" width="54.43" height="199.33" rx="26.04" ry="26.04"/><rect x="404.97" y="1395.12" width="39.45" height="97.59" rx="19.73" ry="19.73"/><rect x="343.72" y="1395.12" width="39.45" height="97.59" rx="19.73" ry="19.73"/><rect x="515.02" y="1397.2" width="39.45" height="97.59" rx="19.73" ry="19.73"/><rect x="576.27" y="1397.2" width="39.45" height="97.59" rx="19.73" ry="19.73"/><rect x="695.67" y="1397.2" width="39.45" height="97.59" rx="19.73" ry="19.73"/><path class="cls-7" d="M121.64,1341.53l-35.83,0c-9.76,0-22.45-2-31.49,2.59-3.6,1.83-4.29,4.59-4.36,8.43-.12,5.79-.07,11.58-.11,17.37l-.23,35.7c0,3.15,4.87,3.15,4.89,0l.2-30.88.09-13.51a77.07,77.07,0,0,1,0-7.72c.45-4.14,1.3-5.26,5.35-6.25,9.24-2.26,20.14-.84,29.6-.84l31.85,0c3.15,0,3.15-4.89,0-4.89Z"/><path class="cls-7" d="M729.19,1628.44c17.09.86,35.11,1.29,52.06-1.43,5.92-1,9.21-4.44,10-10.36,1.18-8.7.86-17.85.54-26.59-.11-3.14-5-3.15-4.89,0,.26,7.3.25,14.61-.16,21.9-.22,3.89-.11,7.84-4.18,9.71-3.1,1.42-7.75,1.13-11.14,1.39a332,332,0,0,1-42.24.49c-3.15-.16-3.14,4.73,0,4.89Z"/><path class="cls-7" d="M385.66,1626.1h63.58c3.15,0,3.15-4.89,0-4.89H385.66c-3.15,0-3.15,4.89,0,4.89Z"/><path class="cls-7" d="M570.48,1346.65H679.9c3.15,0,3.15-4.89,0-4.89H570.48c-3.15,0-3.15,4.89,0,4.89Z"/><path class="cls-5" d="M110.67,1425a34.68,34.68,0,0,1,1.06-13.17c.71-2.45,1.65-4.14,4.28-4.75,2-.47,5.29-.33,6.91,1,2.43,2,5.91-1.48,3.46-3.46-4.1-3.29-12.33-4-16.29-.06-4.76,4.76-4.91,14.29-4.31,20.47.3,3.11,5.19,3.14,4.89,0Z"/><path class="cls-5" d="M177.2,1419.72q0,13.17-.55,26.33c-.13,3.15,4.77,3.14,4.89,0q.53-13.16.55-26.33c0-3.15-4.89-3.15-4.89,0Z"/><path class="cls-5" d="M285.86,1473.26c2,5.15,6,9.12,11.52,10.2,4.55.88,11.14-.27,13.32-4.87,1.34-2.83-2.88-5.32-4.22-2.47-1.43,3-6.3,3.14-9.12,2.31a10.6,10.6,0,0,1-6.78-6.48c-1.13-2.9-5.86-1.64-4.72,1.3Z"/><path class="cls-5" d="M519,1464c.59,6.61-1,11.47,4.29,16.46,4.4,4.15,9.14,5.65,15.14,5.88,3.15.12,3.14-4.77,0-4.89-4.67-.17-8.27-1.17-11.68-4.44-4-3.8-2.42-8.09-2.85-13-.28-3.11-5.17-3.14-4.89,0Z"/><path class="cls-5" d="M709.62,1411.42c5.34-.12,10.44-1,13.44,4.33,2.49,4.4,2.08,9.72,1.69,14.56-.25,3.14,4.64,3.12,4.89,0,.55-6.76.45-13.65-3.85-19.26-4.11-5.37-10-4.67-16.17-4.52-3.14.07-3.15,5,0,4.89Z"/><rect x="2308.7" y="1002.58" width="171.64" height="13.57" transform="matrix(0.87, -0.5, 0.5, 0.87, -183.88, 1332.49)"/><rect x="1994.92" y="987.24" width="171.64" height="13.57" transform="translate(-218.25 1173.54) rotate(-30)"/><rect x="2141.91" y="1058.2" width="47.42" height="11.16"/><circle class="cls-11" cx="2066.6" cy="1061.69" r="78.79"/><circle class="cls-11" cx="2265.33" cy="1061.69" r="78.79"/><path class="cls-12" d="M2040,1114.58a46.75,46.75,0,0,1-33.38-53c.63-3.61-4.9-5.17-5.54-1.53a52.63,52.63,0,0,0,37.4,60.05c3.56,1,5.08-4.52,1.53-5.54Z"/><path class="cls-12" d="M2292.39,1008.57c18.05,7.23,24.58,27.46,25.65,45.31.94,15.73-2,32.9-14.61,43.55-2.83,2.39,1.25,6.43,4.06,4.06,14.59-12.32,17.72-32.82,16-50.89-1.83-19.73-10.08-39.74-29.61-47.57-3.43-1.37-4.92,4.18-1.53,5.54Z"/><path class="cls-13" d="M2687.41,1482.89c-.34,12.54-23.46,21.12-33.76,25.1-26.39,10.19-49.45,28.54-74.92,41.17-64.25,31.86-60.47,30.37-67.24,33.48,0,0-75.88,34.74-171.48,42.11-154.32,11.89-347.28-68.13-347.41-141.86S2185.49,1326.82,2340,1341c56.46,5.2,114.31,23.88,148.38,34.88,21,6.78,37,13.88,47.68,18.31,23.55,9.77,26.59,12.11,115.81,60.17C2675.08,1466.9,2687.66,1473.67,2687.41,1482.89Z"/><rect class="cls-13" x="2130.41" y="1277.45" width="179.93" height="129.1" rx="44.73" ry="44.73"/><ellipse class="cls-13" cx="2220.11" cy="1277.45" rx="11.01" ry="26.9"/><circle class="cls-8" cx="2183.36" cy="1475.13" r="36.68"/><circle class="cls-8" cx="2309.69" cy="1475.13" r="36.68"/><circle class="cls-8" cx="2432.2" cy="1477.05" r="36.68"/><rect class="cls-13" x="2474.95" y="1500.33" width="135.9" height="114.85" rx="33.04" ry="33.04"/><path class="cls-14" d="M2050.18,1468a246.81,246.81,0,0,1,105.56-60.31c3.56-1,2-6.53-1.53-5.54a252.89,252.89,0,0,0-108.09,61.79c-2.66,2.57,1.4,6.63,4.06,4.06Z"/><path class="cls-14" d="M2585.89,1546.24c-2.55,9.54-.07,18.9-.24,28.54-.09,4.79-.92,10.33-4.4,13.92-3.12,3.22-8.8,5.14-12.67,2.1-2.88-2.26-7,1.78-4.06,4.06,7.9,6.19,19,2.41,23.67-6,7-12.83-.34-27.62,3.25-41.06,1-3.57-4.58-5.1-5.54-1.53Z"/><path class="cls-14" d="M2177.83,1297.17c-8.17,2.14-19.88-4.24-24.19,6.44-2.06,5.1-1.45,11.57-1.57,16.93-.15,7-.11,14,.07,21,.1,3.69,5.84,3.7,5.74,0-.28-10.55-.67-21.41.32-31.94.55-5.9,3.89-7.3,9.31-6.8,4.06.37,7.84.93,11.84-.12,3.57-.94,2.06-6.48-1.53-5.54Z"/><path class="cls-14" d="M2086.81,1552.51a413.87,413.87,0,0,0,63.27,25.49c3.54,1.1,5.05-4.45,1.53-5.54a404.66,404.66,0,0,1-61.9-24.91c-3.29-1.65-6.2,3.3-2.9,5Z"/><path class="cls-14" d="M2257.72,1346.34l23.47.15c4.35,0,10.5,1.15,13.35-3.07s2.23-11.48,1.74-16.22a52,52,0,0,0-5.08-17.41c-1.61-3.33-6.56-.42-5,2.9a44.7,44.7,0,0,1,4.29,14.51c.36,3.27,1.58,12.15-2.23,13.56-1.82.68-5.16,0-7.11,0l-7.82,0-15.65-.1c-3.7,0-3.7,5.72,0,5.74Z"/><path class="cls-14" d="M2632.95,1464.82a57.26,57.26,0,0,1,30.17,17.93c2.46,2.77,6.51-1.31,4.06-4.06a62.53,62.53,0,0,0-32.7-19.41c-3.6-.84-5.13,4.7-1.53,5.54Z"/><path class="cls-15" d="M1650.23,1000.89c6.94,22,21.76,69,4.47,117.8-12,33.72-30.39,43.31-40.26,83.5-12,48.82,8,63.92-4.47,82-31.5,45.56-159-49.52-259.45,6-37.18,20.53-34.69,41.81-116.31,99.9-24.91,17.73-50.94,18.6-76,44.73-26.15,27.22-31.44,53.42-44.73,52.19-15.55-1.45-24.51-38.85-26.84-58.15-3.55-29.37,4.49-52.87,11.93-74.56a266,266,0,0,1,31.31-62.63c3.62-18.27,5.64-44.42-6-70.08-8.17-18.06-19.66-27.06-25.35-34.3-37.14-47.28-10-131.7-3-153.59,32.63-101.57,153.75-206,296.73-201.3C1502.43,836,1619.72,904.16,1650.23,1000.89Z"/><path class="cls-5" d="M1185,1015.18a164.28,164.28,0,0,1,89.14-114c2.6-1.24.33-5.1-2.26-3.86-46.37,22.21-80.84,66.34-91.19,116.7-.58,2.81,3.73,4,4.31,1.19Z"/><path class="cls-5" d="M1286.26,1058.9c-11.78-45,.32-94.75,31.57-129.26,1.93-2.13-1.23-5.3-3.16-3.16-32.32,35.71-44.92,87-32.72,133.62.73,2.78,5,1.6,4.31-1.19Z"/><path class="cls-5" d="M1206.36,1368.45a61.63,61.63,0,0,0,28.78-30.89c7.32-17.35,3.2-34.9,3.32-53,.22-31.92,27.61-59.47,59.71-59.4,2.88,0,2.88-4.47,0-4.47-22.34-.05-43.36,12.61-55,31.48a62.7,62.7,0,0,0-9.14,34.28c.2,15.16,3.49,30.32-1.35,45.12a57.31,57.31,0,0,1-28.54,33.06c-2.57,1.3-.31,5.17,2.26,3.86Z"/><path class="cls-5" d="M1137.21,1412.59c-4-18.72-2.64-41.51,12.39-55.24,5.22-4.77,11.35-8.34,16.06-13.69a56,56,0,0,0,11-19.83c8.71-26.94.27-57.44-10.33-82.6a186,186,0,0,0-17.7-33c-1.62-2.36-5.49-.13-3.86,2.26a186.18,186.18,0,0,1,28.41,67.09c3,15,3.88,31-1,45.66a49.28,49.28,0,0,1-13.5,21.07c-5.16,4.65-11.23,8.16-15.78,13.49-13,15.24-14,37.21-10,56,.6,2.81,4.91,1.62,4.31-1.19Z"/><path class="cls-15" d="M1462.35,1258.3c-.68,2.76,51.36,6.21,88,41.75,28.08,27.26,35.67,62.31,38.77,77.54,5.22,25.63,2.49,42-11.93,138.67-6.33,42.47-9.94,63.64-3,85,16.44,50.44,73.42,84.17,89.22,73.21,17-11.82-28.12-64.65-8.83-139.46,4.17-16.18,11.29-33.1,15.89-65.32,3.79-26.52,5.7-40,1.77-58.26,0,0-5.76-26.79-30.56-66.23-3.21-5.11-4.89-7.62-5.81-9a36.19,36.19,0,0,1-3.59-5.8c-13.9-27.9-10-50.84-17.82-75.12-1.52-4.74-5-14.16-4.47-25.35a33.32,33.32,0,0,0,0-4.47c-.24,0,1.48,12.79-4.47,20.88-5.11,6.94-14.34,8.35-19.38,8.95C1551.57,1259.38,1463.23,1254.72,1462.35,1258.3Z"/><path class="cls-5" d="M1603.88,1308.77a230.44,230.44,0,0,0,13.19,38.67c6.37,14.34,14.73,27.22,23,40.49,14.61,23.52,15,50.53,8,76.76-.74,2.78,3.57,4,4.31,1.19,6.74-25.29,7.27-52.64-5.89-76-7.59-13.46-16.62-25.81-23.27-39.85a223.71,223.71,0,0,1-15-42.46c-.69-2.79-5-1.61-4.31,1.19Z"/><path class="cls-5" d="M1636.86,1602c-17.18,2.61-21.44-21.06-23.49-33.13a161,161,0,0,1-.75-47.7c.37-2.85-4.11-2.82-4.47,0a163.78,163.78,0,0,0,2.79,58.21c3.1,13.32,10.74,29.42,27.12,26.93,2.84-.43,1.63-4.74-1.19-4.31Z"/><path class="cls-5" d="M1348.09,1195.48c33.8-24.16,77.77-21.08,117-17.68,2.87.25,2.85-4.23,0-4.47-40-3.46-84.87-6.32-119.31,18.3-2.32,1.66-.09,5.54,2.26,3.86Z"/><path class="cls-15" d="M1539.45,1379.52c-.24-2.18-2.89-3.93-4.57-1.8-5.24,6.64-10.27,14.28-16.71,20-5.23,4-10.48,6.72-17.47,7.06-5.09.25-10.31-.43-15.38-.8-10.45-.76-20.93-1.59-31.37-.24-13.39,1.73-27.6,7.45-28.68,22.64-.17,2.35,2.18,3.14,3.89,2.4a2.22,2.22,0,0,0,2.35-.32c11.32-8.37,25.23-7.74,38.65-7.47,11.16.23,24.6,2.58,35.26-1.69,15.29-6.13,25.9-23.6,34-37.13A2.5,2.5,0,0,0,1539.45,1379.52Z"/><path class="cls-5" d="M1152,1149.41c-26.15-11.3-34.82-44.45-16.56-66.73,1.81-2.21-1.34-5.39-3.16-3.16-19.9,24.28-11.61,61.2,17.47,73.76,2.62,1.13,4.9-2.72,2.26-3.86Z"/><path class="cls-5" d="M1551.61,1166.22c25.49-2.18,46.49-20.2,57.62-42.55,14.07-28.26,12.15-61.29,7.25-91.55-.46-2.83-4.77-1.63-4.31,1.19,4.61,28.52,6.63,60-6.17,86.8-10.22,21.42-30,39.56-54.4,41.65-2.85.24-2.87,4.72,0,4.47Z"/><path class="cls-5" d="M1331.67,885.24c26.27-4.19,52.74-8.33,79.44-7.09a221.5,221.5,0,0,1,203.48,163.9c.89,3.29,6,1.89,5.11-1.41a226.25,226.25,0,0,0-199.23-167.15c-30.29-2.7-60.35,1.89-90.2,6.65-3.36.54-1.93,5.64,1.41,5.11Z"/><path class="cls-16" d="M325.63,2086.79c-14.14,30.75-48.51,51.33-83.42,53.41-41,2.44-81.08-20.72-95.78-53.41-13.14-29.2-1.51-56,16.33-106.37,54.66-154.36,51.66-202.61,71.5-203,15.72-.33,16.76,30,76.8,200.39C328.58,2027.51,339.59,2056.42,325.63,2086.79Z"/><path class="cls-16" d="M491.89,2321.15c-13.4,31.08-47.28,52.47-82.13,55.38-40.92,3.42-81.55-18.79-97-51.11-13.83-28.88-2.85-55.93,13.79-106.73,51-155.62,46.82-203.79,66.65-204.68,15.71-.71,17.47,29.55,81.55,198.5C493.43,2261.81,505.12,2290.46,491.89,2321.15Z"/><path class="cls-16" d="M307.3,2472.68c-14.14,30.75-48.51,51.33-83.42,53.41-41,2.44-81.08-20.72-95.78-53.41-13.14-29.2-1.51-56,16.33-106.37,54.66-154.36,51.66-202.61,71.5-203,15.72-.33,16.76,30,76.8,200.39C310.25,2413.39,321.26,2442.3,307.3,2472.68Z"/><path class="cls-16" d="M463.23,2722.84c-14.14,30.75-48.51,51.33-83.42,53.41-41,2.44-81.08-20.72-95.78-53.41-13.14-29.2-1.51-56,16.33-106.37,54.66-154.36,51.66-202.61,71.5-203,15.72-.33,16.76,30,76.8,200.39C466.18,2663.55,477.19,2692.47,463.23,2722.84Z"/><path class="cls-17" d="M399.5,2572.71c16.36,26.7,28.44,55.23,37.38,85.19,3.52,11.81,6.34,24,2.84,36.19s-11.82,22.08-21.81,29.46a99.11,99.11,0,0,1-25,13.24c-3.85,1.4-2.19,7.59,1.7,6.18,19.69-7.16,39.49-19.82,48.46-39.49,5.31-11.65,5.67-23.78,3-36.15-3.28-15-8.61-29.95-14.22-44.27A339.86,339.86,0,0,0,405,2569.48c-2.15-3.51-7.7-.3-5.53,3.23Z"/><path class="cls-17" d="M184.54,1978.54c-10.95,31.2-26.61,66.7-14.25,99.86,5.27,14.13,14.53,25.06,30.16,26.72,16.65,1.77,33.71-2.56,48.08-10.93,3.56-2.07.34-7.62-3.23-5.53-13,7.56-28.13,11.49-43.19,10.21-8.28-.7-14.88-4-19.71-10.82a54.94,54.94,0,0,1-8.28-19.19c-7-30.09,6.82-60.75,16.6-88.61,1.37-3.9-4.82-5.58-6.18-1.7Z"/><path class="cls-17" d="M237.58,1823.73l18.81,59.48c1.24,3.92,7.43,2.24,6.18-1.7L243.76,1822c-1.24-3.92-7.43-2.24-6.18,1.7Z"/><path class="cls-17" d="M191.27,2275.16c-3.32,43.68-14.63,86.12-26.23,128.2-5,18.25-11.6,38.16-5.43,57,5.51,16.79,19.19,25.78,36.5,26.87,16.15,1,42.79-.78,44.62-21.71.36-4.11-6.05-4.08-6.41,0-.82,9.34-10.58,13.21-18.59,14.43-8.18,1.24-17.18,1.69-25.35.22-16.85-3-26-17.21-26.8-33.64-.87-18.68,6.63-37.6,11.45-55.38,4.88-18,9.56-36,13.45-54.28a465.75,465.75,0,0,0,9.19-61.68c.31-4.11-6.1-4.09-6.41,0Z"/><path class="cls-17" d="M444.82,2186.93l18.81,59.48c1.24,3.92,7.43,2.24,6.18-1.7L451,2185.23c-1.24-3.92-7.43-2.24-6.18,1.7Z"/><ellipse class="cls-15" cx="1119.9" cy="2384.77" rx="51.49" ry="55.26"/><ellipse class="cls-15" cx="1173.91" cy="2363.42" rx="51.49" ry="55.26"/><ellipse class="cls-15" cx="1222.95" cy="2366.2" rx="45.47" ry="54.54"/><ellipse class="cls-15" cx="1281.34" cy="2371.07" rx="45.47" ry="54.54"/><ellipse class="cls-15" cx="1262.48" cy="2366.61" rx="45.47" ry="54.54"/><ellipse class="cls-15" cx="1098.55" cy="2427.48" rx="51.49" ry="55.26"/><ellipse class="cls-15" cx="1173.91" cy="2436.27" rx="51.49" ry="55.26"/><ellipse class="cls-15" cx="1232.93" cy="2443.06" rx="45.47" ry="54.54"/><ellipse class="cls-15" cx="1344.71" cy="2293.72" rx="51.49" ry="55.26"/><ellipse class="cls-15" cx="1435.45" cy="2292.15" rx="51.49" ry="55.26"/><ellipse class="cls-15" cx="1088.82" cy="2514.13" rx="51.49" ry="55.26"/><ellipse class="cls-15" cx="1145.33" cy="2550.55" rx="51.49" ry="55.26"/><ellipse class="cls-15" cx="1123.98" cy="2531.72" rx="51.49" ry="55.26"/><ellipse class="cls-15" cx="1358.52" cy="2331.4" rx="51.49" ry="55.26"/><ellipse class="cls-15" cx="1474.07" cy="2220.25" rx="51.49" ry="55.26"/><ellipse class="cls-15" cx="1100.12" cy="2592" rx="51.49" ry="55.26"/><ellipse class="cls-15" cx="1182.07" cy="2701.26" rx="51.49" ry="55.26"/><ellipse class="cls-15" cx="1500.44" cy="2249.76" rx="51.49" ry="55.26"/><ellipse class="cls-15" cx="1088.82" cy="2514.13" rx="51.49" ry="55.26"/><ellipse class="cls-15" cx="1145.33" cy="2550.55" rx="51.49" ry="55.26"/><ellipse class="cls-15" cx="1123.98" cy="2531.72" rx="51.49" ry="55.26"/><ellipse class="cls-15" cx="1104.2" cy="2710.05" rx="51.49" ry="55.26"/><ellipse class="cls-15" cx="1480.66" cy="2302.83" rx="51.49" ry="55.26"/><ellipse class="cls-15" cx="1207.98" cy="2585.31" rx="45.47" ry="54.54"/><ellipse class="cls-15" cx="1375.79" cy="2310.68" rx="51.49" ry="55.26"/><ellipse class="cls-15" cx="1372.34" cy="2212.4" rx="51.49" ry="55.26"/><ellipse class="cls-15" cx="1142.51" cy="2485.87" rx="51.49" ry="55.26"/><ellipse class="cls-15" cx="1145.33" cy="2550.55" rx="51.49" ry="55.26"/><ellipse class="cls-15" cx="1075.95" cy="2647.57" rx="51.49" ry="55.26"/><ellipse class="cls-15" cx="1408.13" cy="2260.13" rx="51.49" ry="55.26"/><ellipse class="cls-15" cx="1193.28" cy="2643.58" rx="45.47" ry="54.54"/><ellipse class="cls-15" cx="1193.01" cy="2512.79" rx="45.47" ry="54.54"/><ellipse class="cls-15" cx="1420.06" cy="2219.62" rx="51.49" ry="55.26"/><ellipse class="cls-15" cx="1359.47" cy="2215.86" rx="51.49" ry="55.26"/><ellipse class="cls-15" cx="1258.37" cy="2208.95" rx="51.49" ry="55.26"/><ellipse class="cls-15" cx="1331.84" cy="2208.63" rx="51.49" ry="55.26"/><ellipse class="cls-15" cx="1222.89" cy="2212.4" rx="51.49" ry="55.26"/><ellipse class="cls-15" cx="1157.89" cy="2639.41" rx="51.49" ry="55.26"/><ellipse class="cls-15" cx="1142.82" cy="2676.46" rx="51.49" ry="55.26"/><ellipse class="cls-15" cx="1179.24" cy="2230.3" rx="51.49" ry="55.26"/><ellipse class="cls-15" cx="1134.03" cy="2285.87" rx="51.49" ry="55.26"/><ellipse class="cls-15" cx="1188.03" cy="2264.52" rx="51.49" ry="55.26"/><ellipse class="cls-15" cx="1247.06" cy="2268.29" rx="51.49" ry="55.26"/><ellipse class="cls-15" cx="1297.93" cy="2287.76" rx="51.49" ry="55.26"/><ellipse class="cls-15" cx="1152.24" cy="2687.13" rx="51.49" ry="55.26"/><ellipse class="cls-15" cx="1112.68" cy="2328.57" rx="51.49" ry="55.26"/><ellipse class="cls-15" cx="1188.03" cy="2337.36" rx="51.49" ry="55.26"/><ellipse class="cls-15" cx="1270.84" cy="2339.79" rx="45.47" ry="54.54"/><ellipse class="cls-15" cx="1659.94" cy="2386.97" rx="51.49" ry="55.26"/><ellipse class="cls-15" cx="1605.94" cy="2365.62" rx="51.49" ry="55.26"/><ellipse class="cls-15" cx="1546.91" cy="2369.39" rx="51.49" ry="55.26"/><ellipse class="cls-15" cx="1481.92" cy="2346.47" rx="51.49" ry="55.26"/><ellipse class="cls-15" cx="1506.09" cy="2338.93" rx="51.49" ry="55.26"/><ellipse class="cls-15" cx="1681.29" cy="2429.67" rx="51.49" ry="55.26"/><ellipse class="cls-15" cx="1605.94" cy="2438.46" rx="51.49" ry="55.26"/><ellipse class="cls-15" cx="1572.34" cy="2433.13" rx="51.49" ry="55.26"/><ellipse class="cls-15" cx="1399.97" cy="2290.9" rx="51.49" ry="55.26"/><ellipse class="cls-15" cx="1344.39" cy="2284.3" rx="51.49" ry="55.26"/><ellipse class="cls-15" cx="1691.02" cy="2516.33" rx="51.49" ry="55.26"/><ellipse class="cls-15" cx="1634.51" cy="2552.75" rx="51.49" ry="55.26"/><ellipse class="cls-15" cx="1655.86" cy="2533.91" rx="51.49" ry="55.26"/><ellipse class="cls-15" cx="1421.32" cy="2333.6" rx="51.49" ry="55.26"/><ellipse class="cls-15" cx="1290.7" cy="2207.38" rx="51.49" ry="55.26"/><ellipse class="cls-15" cx="1679.72" cy="2594.2" rx="51.49" ry="55.26"/><ellipse class="cls-15" cx="1597.77" cy="2703.46" rx="51.49" ry="55.26"/><ellipse class="cls-15" cx="1279.4" cy="2241.92" rx="51.49" ry="55.26"/><ellipse class="cls-15" cx="1691.02" cy="2516.33" rx="51.49" ry="55.26"/><ellipse class="cls-15" cx="1634.51" cy="2552.75" rx="51.49" ry="55.26"/><ellipse class="cls-15" cx="1655.86" cy="2533.91" rx="51.49" ry="55.26"/><ellipse class="cls-15" cx="1675.64" cy="2712.25" rx="51.49" ry="55.26"/><ellipse class="cls-15" cx="1299.18" cy="2294.98" rx="51.49" ry="55.26"/><ellipse class="cls-15" cx="1563.86" cy="2591.37" rx="51.49" ry="55.26"/><ellipse class="cls-15" cx="1368.89" cy="2307.85" rx="51.49" ry="55.26"/><ellipse class="cls-15" cx="1357.27" cy="2204.55" rx="51.49" ry="55.26"/><ellipse class="cls-15" cx="1637.33" cy="2488.07" rx="51.49" ry="55.26"/><ellipse class="cls-15" cx="1634.51" cy="2552.75" rx="51.49" ry="55.26"/><ellipse class="cls-15" cx="1703.9" cy="2649.77" rx="51.49" ry="55.26"/><ellipse class="cls-15" cx="1336.55" cy="2257.3" rx="51.49" ry="55.26"/><ellipse class="cls-15" cx="1580.51" cy="2650.4" rx="51.49" ry="55.26"/><ellipse class="cls-15" cx="1580.82" cy="2517.9" rx="51.49" ry="55.26"/><ellipse class="cls-15" cx="1344.71" cy="2206.75" rx="51.49" ry="55.26"/><ellipse class="cls-15" cx="1390.24" cy="2218.05" rx="51.49" ry="55.26"/><ellipse class="cls-15" cx="1506.41" cy="2216.17" rx="51.49" ry="55.26"/><ellipse class="cls-15" cx="1432.94" cy="2215.86" rx="51.49" ry="55.26"/><ellipse class="cls-15" cx="1541.89" cy="2219.62" rx="51.49" ry="55.26"/><ellipse class="cls-15" cx="1621.95" cy="2641.61" rx="51.49" ry="55.26"/><ellipse class="cls-15" cx="1637.02" cy="2678.66" rx="51.49" ry="55.26"/><ellipse class="cls-15" cx="1600.6" cy="2232.5" rx="51.49" ry="55.26"/><ellipse class="cls-15" cx="1645.81" cy="2288.07" rx="51.49" ry="55.26"/><ellipse class="cls-15" cx="1591.81" cy="2266.72" rx="51.49" ry="55.26"/><ellipse class="cls-15" cx="1532.78" cy="2270.49" rx="51.49" ry="55.26"/><ellipse class="cls-15" cx="1481.92" cy="2289.95" rx="51.49" ry="55.26"/><ellipse class="cls-15" cx="1627.6" cy="2689.33" rx="51.49" ry="55.26"/><ellipse class="cls-15" cx="1667.16" cy="2330.77" rx="51.49" ry="55.26"/><ellipse class="cls-15" cx="1591.81" cy="2339.56" rx="51.49" ry="55.26"/><ellipse class="cls-15" cx="1521.48" cy="2348.35" rx="51.49" ry="55.26"/><ellipse class="cls-15" cx="1388.04" cy="2167.66" rx="322.14" ry="57.93"/><rect class="cls-15" x="1212.84" y="1776.29" width="356.05" height="392.78" rx="43.18" ry="43.18"/><path class="cls-18" d="M1314.38,1813.55l-29.4-.08c-8.55,0-17.92-1.22-26.36.14-8.79,1.41-8.17,10.5-8.86,17.55q-1.34,13.77-2.34,27.56a1141.57,1141.57,0,0,0-2.52,114.52c.15,5.44,8.63,5.47,8.48,0q-1.44-51.85,1.78-103.68.81-12.82,1.91-25.61.55-6.4,1.17-12.79c.19-2,.38-3.93.59-5.9.33-3.15.68-3.36,3.6-3.38,17.31-.09,34.63.1,51.95.15,5.46,0,5.46-8.46,0-8.48Z"/><path class="cls-18" d="M1632.45,2154.24c3.18-1.21,4.93,2.05,5.42,4.87.73,4.22-2.21,6.93-5.84,8.52-9.44,4.14-22.16,2.33-32.19,2.45l-73.7.83c-5.45.06-5.47,8.54,0,8.48l49.13-.55c15.86-.18,32.06.59,47.86-.73,9.84-.82,22.9-5,23.32-16.88.3-8.49-6.81-18.74-16.26-15.15-5.05,1.92-2.86,10.11,2.25,8.17Z"/><path class="cls-18" d="M1154.34,2219.89c-1.36-3.27.23-8.28,4.31-8.69a4.36,4.36,0,0,0,4.24-4.24c0-2.11-1.95-4.47-4.24-4.24-9,.91-16.16,10.55-12.48,19.42.87,2.1,2.81,3.63,5.21,3,2-.56,3.85-3.08,3-5.21Z"/><path class="cls-18" d="M1291.39,2364.76c5.49,5.43,11.09,13.32,9.43,21.54-1.28,6.32-7.62,11.72-14.13,9.67-5.22-1.64-7.45,6.54-2.25,8.17,10,3.15,20.28-3.62,23.79-13.07,4.39-11.83-2.59-24.15-10.83-32.31-3.88-3.84-9.88,2.15-6,6Z"/><path class="cls-18" d="M1182.09,2338c-4.69,6.06-4.72,15.14,1.47,20.32a14.58,14.58,0,0,0,20.24-2.1c1.42-1.82,1.74-4.22,0-6-1.45-1.48-4.59-1.8-6,0-2,2.5-5.58,3.89-8.46,1.9a6.12,6.12,0,0,1-1.27-8.13c1.41-1.82,1.74-4.21,0-6-1.45-1.48-4.6-1.81-6,0Z"/><path class="cls-18" d="M1221.4,2281.64c-1.33-1.77-1.28-4.77,1-5.93,2.44-1.26,5.17,2,4.6,4.29-1.3,5.3,6.87,7.56,8.17,2.25,2.1-8.53-6.14-17.6-15-14.79-7.25,2.31-10.72,12.29-6.09,18.46,1.37,1.83,3.66,2.77,5.8,1.52,1.8-1.05,2.9-4,1.52-5.8Z"/><path class="cls-18" d="M1123.29,2285.37c-8-4.19-18.36-2.68-24.08,4.64s-4.64,17.71,1.36,24.48c3.63,4.09,9.6-1.92,6-6-7.6-8.58,2.33-21.1,12.44-15.81,4.83,2.53,9.12-4.79,4.28-7.32Z"/><path class="cls-18" d="M1229.94,2404.69a5.27,5.27,0,0,1-.51-4.33,5.49,5.49,0,0,1,.95-1.89c.2-.25.48-.44.68-.68a1.5,1.5,0,0,1,.4-.26q1.64-.77-1-2.83c-1.37,1.84-.3,4.73,1.52,5.8,2.16,1.26,4.43.32,5.8-1.52,2.13-2.86.93-7.14-1.94-9-3.43-2.23-7.78-.82-10.61,1.71a14.08,14.08,0,0,0-2.59,17.3c2.73,4.72,10.05.46,7.32-4.28Z"/><path class="cls-18" d="M1083.36,2443.36c-11.24-.89-17.19-13.91-10.07-22.85,3.36-4.23-2.6-10.26-6-6-11.79,14.81-2.95,35.82,16.07,37.32,5.44.43,5.41-8,0-8.48Z"/><path class="cls-18" d="M1166,2451.42c-6.84.55-13.28,7.09-10.77,14.29,2,5.8,9.82,9.08,15,5.31a4.36,4.36,0,0,0,1.52-5.8c-1.07-1.83-3.93-2.87-5.8-1.52-.62.45-.83.6-1.44.35s-1.17-.5-1.35-1.12c-.4-1.33,1.51-2.92,2.8-3a4.35,4.35,0,0,0,4.24-4.24c0-2.15-1.94-4.42-4.24-4.24Z"/><path class="cls-18" d="M1218.79,2567.66a13,13,0,0,1,5.39,17.7c-2.66,4.77,4.66,9,7.32,4.28,5.71-10.23,2-23.74-8.43-29.3-4.81-2.56-9.1,4.75-4.28,7.32Z"/><path class="cls-18" d="M1218.7,2621.34c-6.83-4.07-15.63,1.67-14.06,9.66,1.27,6.48,8.17,8.51,13.89,8.94,2.29.17,4.24-2.07,4.24-4.24a4.32,4.32,0,0,0-4.24-4.24c-1.67-.13-4.52-.45-5.45-1.79-.41-.6.17-1.71,1.35-1,4.7,2.8,9-4.53,4.28-7.32Z"/><path class="cls-18" d="M1191.15,2520c1.2-.24,1.12,7.55,1.09,8.65-.08,3.17-.44,6.55-2.48,9.13-3.35,4.24,2.61,10.28,6,6,4.68-5.93,5.32-13,4.87-20.33-.41-6.77-4-13.18-11.73-11.62-5.34,1.08-3.08,9.26,2.25,8.17Z"/><path class="cls-18" d="M1208.46,2503.86c3.5-.94,2.66,7.05,2.54,8.58-.43,5.44,8.05,5.41,8.48,0,.36-4.52.31-9.31-2.67-13a10.13,10.13,0,0,0-10.6-3.74c-5.26,1.41-3,9.59,2.25,8.17Z"/><path class="cls-18" d="M1059,2626.32c-12.54,6.7-14.69,24.77-12.38,37.39,2.42,13.26,15.77,25,29.31,17.76,4.82-2.57.54-9.89-4.28-7.32-10.38,5.53-16.85-8.24-17.21-16.35-.37-8.32.64-19.77,8.84-24.16,4.81-2.57.54-9.89-4.28-7.32Z"/><path class="cls-18" d="M1336.11,2224.91a26.88,26.88,0,0,1,20.49-9c5.46,0,5.46-8.45,0-8.48a35.35,35.35,0,0,0-26.48,11.53c-3.67,4,2.3,10,6,6Z"/><path class="cls-18" d="M1439.47,2212a43.63,43.63,0,0,0,36.6,11.42c5.38-.75,3.09-8.92-2.25-8.17a34.57,34.57,0,0,1-28.35-9.24c-4-3.74-10,2.25-6,6Z"/><path class="cls-18" d="M1365.18,2310.18c-10.35.76-13.69-13.23-3.38-16.3,5.22-1.55,3-9.74-2.25-8.17-8.13,2.42-14,10.48-12.54,19.12s9.7,14.45,18.17,13.83c5.41-.4,5.45-8.88,0-8.48Z"/><path class="cls-18" d="M1404.3,2359.12a27.48,27.48,0,0,0,27.89,6.95c5.18-1.64,3-9.83-2.25-8.17a18.92,18.92,0,0,1-19.64-4.77c-3.85-3.88-9.84,2.11-6,6Z"/><path class="cls-18" d="M1425.74,2299.2c-1-.21,0,0,.11.32.15.66-.19-.67-.19-.66.07.42.08-.36.08-.34,0-.3.43-.94.06-.45,1.53-2,5.4-1.7,7.58-1.7,5.45,0,5.46-8.49,0-8.48-5.89,0-13,1-15.42,7.24-1.84,4.7.1,11.14,5.54,12.23a4.35,4.35,0,0,0,5.21-3,4.28,4.28,0,0,0-3-5.21Z"/><path class="cls-18" d="M1480.72,2261.17c0-.24,0-.47,0-.71q-.17,1,0,.55a2.73,2.73,0,0,1,.1-.33c0,.23-.38.94-.06.28.17-.34-.71.76-.07.12s0,.08-.22.14l.3-.18q.43-.23-.48.18l.22-.07q.67-.16-.44,0a4.4,4.4,0,0,0,.71,0,4.25,4.25,0,0,0,4.24-4.24,4.35,4.35,0,0,0-4.24-4.24c-4.49-.41-8.89,4-8.47,8.48a4.56,4.56,0,0,0,1.24,3,4.31,4.31,0,0,0,3,1.24c2.12-.1,4.46-1.87,4.24-4.24Z"/><path class="cls-18" d="M1373.48,2273.19c2.34-9.85,14.34-15.58,23.37-10.66,4.79,2.61,9.07-4.7,4.28-7.32-13.66-7.45-32.2.43-35.82,15.73-1.26,5.3,6.91,7.57,8.17,2.25Z"/><path class="cls-18" d="M1568.37,2234.13c8-1.85,17.4-4.24,24.85.48,9.12,5.78,4.48,16,.53,23.59-2.53,4.83,4.78,9.12,7.32,4.28,5.48-10.45,10-23.81-.44-32.89-9.8-8.5-22.93-6.33-34.51-3.64-5.31,1.24-3.06,9.41,2.25,8.17Z"/><path class="cls-18" d="M1641.34,2270.6c10.19,2.63,14.44,17.12,7,24.73-3.81,3.91,2.18,9.91,6,6,11.79-12.08,5.67-34.65-10.76-38.9-5.29-1.36-7.54,6.81-2.25,8.17Z"/><path class="cls-18" d="M1555.38,2421.39c-3.3,9.08-4.83,19.7,0,28.57,3.94,7.23,11.81,12.29,20.15,11.42,5.37-.55,5.43-9,0-8.48-6.16.64-11.35-3.19-13.58-8.87-2.59-6.59-.7-14,1.62-20.39,1.87-5.13-6.32-7.35-8.17-2.25Z"/><path class="cls-18" d="M1702.34,2495.95c5.15,4.8,7.27,12.34,4.42,19-2.13,5,5.17,9.28,7.32,4.28,4.34-10.11,2.43-21.64-5.74-29.26-4-3.72-10,2.26-6,6Z"/><path class="cls-18" d="M1650,2416.62c-5.83,10.44,5.36,24.8,17,20.72,5.11-1.8,2.91-10-2.25-8.17-4.35,1.53-9.81-4-7.41-8.26,2.66-4.77-4.66-9-7.32-4.28Z"/><path class="cls-18" d="M1454.61,2371c-.75,11.29,12.07,20.87,22.66,16.44,2.13-.89,3.6-2.8,3-5.21-.53-2-3.1-3.84-5.21-3-5.65,2.36-12.34-2-11.93-8.27.36-5.45-8.12-5.42-8.48,0Z"/><path class="cls-18" d="M1541.91,2569.1c-3.13,7.09-6.43,15.71-1.62,22.86,3.59,5.33,10.26,7.72,16.06,4.62,4.82-2.57.54-9.89-4.28-7.32-2.33,1.24-4.77-1.41-5.46-3.44-1.36-4,1-8.89,2.61-12.44,2.18-4.95-5.12-9.26-7.32-4.28Z"/><path class="cls-18" d="M1612.18,2607.49c-3.5-7.91,4.83-14.22,12-11.44,5.09,2,7.3-6.23,2.25-8.17a17.55,17.55,0,0,0-19,4.42c-4.87,5.47-5.47,12.95-2.58,19.48,2.2,5,9.51.67,7.32-4.28Z"/><path class="cls-18" d="M1622.46,2516.68a23.52,23.52,0,0,1,1.18,22.36c-2.34,4.9,5,9.21,7.32,4.28a32.39,32.39,0,0,0-1.18-30.91c-2.77-4.69-10.1-.43-7.32,4.28Z"/><path class="cls-18" d="M1717,2636.23c6.51,2.67,10.59,10.62,8.47,17.43-2.2,7.06-9.45,10.73-16.47,9.95-5.41-.6-5.37,7.88,0,8.48,11.13,1.24,22.52-6.4,25-17.49,2.51-11.35-4.34-22.27-14.73-26.54-5-2.07-7.24,6.13-2.25,8.17Z"/><circle class="cls-5" cx="380.04" cy="3323.26" r="228.68"/><path class="cls-5" d="M423.31,3071.83c-4.49-10.08,1.17-22.38,10.07-28,1.59-1,4.54-3,6.57-2.83,1.59.12.51-.57.49.87a16.87,16.87,0,0,1-.79,3.65c-1.35,5.35-2.67,10.7-3.81,16.1-1.21,5.71-1.73,11.95-3.69,17.47a13,13,0,0,1-.65,1.5c0,.1,0-.07.08,0-3.34-.68-6.51-5.36-8.26-8.7-2.36-4.5-9.17-.51-6.81,4,3.46,6.6,15.55,19.23,21.91,8.59,1.71-2.86,2.2-6.49,2.84-9.7,1.27-6.41,2.52-12.81,4-19.17,1.3-5.48,6.05-15.63,1-20.48-4.6-4.39-12.42-.82-16.85,2-12.89,8.07-19.18,24.7-12.9,38.8C418.56,3080.45,425.36,3076.44,423.31,3071.83Z"/><path class="cls-5" d="M423.31,3071.83c-4.49-10.08,1.17-22.38,10.07-28,1.59-1,4.54-3,6.57-2.83,1.59.12.51-.57.49.87a16.87,16.87,0,0,1-.79,3.65c-1.35,5.35-2.67,10.7-3.81,16.1-1.21,5.71-1.73,11.95-3.69,17.47a13,13,0,0,1-.65,1.5c0,.1,0-.07.08,0-3.34-.68-6.51-5.36-8.26-8.7-2.36-4.5-9.17-.51-6.81,4,3.46,6.6,15.55,19.23,21.91,8.59,1.71-2.86,2.2-6.49,2.84-9.7,1.27-6.41,2.52-12.81,4-19.17,1.3-5.48,6.05-15.63,1-20.48-4.6-4.39-12.42-.82-16.85,2-12.89,8.07-19.18,24.7-12.9,38.8C418.56,3080.45,425.36,3076.44,423.31,3071.83Z"/><path class="cls-5" d="M423.31,3071.83c-4.49-10.08,1.17-22.38,10.07-28,1.59-1,4.54-3,6.57-2.83,1.59.12.51-.57.49.87a16.87,16.87,0,0,1-.79,3.65c-1.35,5.35-2.67,10.7-3.81,16.1-1.21,5.71-1.73,11.95-3.69,17.47a13,13,0,0,1-.65,1.5c0,.1,0-.07.08,0-3.34-.68-6.51-5.36-8.26-8.7-2.36-4.5-9.17-.51-6.81,4,3.46,6.6,15.55,19.23,21.91,8.59,1.71-2.86,2.2-6.49,2.84-9.7,1.27-6.41,2.52-12.81,4-19.17,1.3-5.48,6.05-15.63,1-20.48-4.6-4.39-12.42-.82-16.85,2-12.89,8.07-19.18,24.7-12.9,38.8C418.56,3080.45,425.36,3076.44,423.31,3071.83Z"/><path class="cls-5" d="M423.31,3071.83c-4.49-10.08,1.17-22.38,10.07-28,1.59-1,4.54-3,6.57-2.83,1.59.12.51-.57.49.87a16.87,16.87,0,0,1-.79,3.65c-1.35,5.35-2.67,10.7-3.81,16.1-1.21,5.71-1.73,11.95-3.69,17.47a13,13,0,0,1-.65,1.5c0,.1,0-.07.08,0-3.34-.68-6.51-5.36-8.26-8.7-2.36-4.5-9.17-.51-6.81,4,3.46,6.6,15.55,19.23,21.91,8.59,1.71-2.86,2.2-6.49,2.84-9.7,1.27-6.41,2.52-12.81,4-19.17,1.3-5.48,6.05-15.63,1-20.48-4.6-4.39-12.42-.82-16.85,2-12.89,8.07-19.18,24.7-12.9,38.8C418.56,3080.45,425.36,3076.44,423.31,3071.83Z"/><path class="cls-5" d="M423.31,3071.83c-4.49-10.08,1.17-22.38,10.07-28,1.59-1,4.54-3,6.57-2.83,1.59.12.51-.57.49.87a16.87,16.87,0,0,1-.79,3.65c-1.35,5.35-2.67,10.7-3.81,16.1-1.21,5.71-1.73,11.95-3.69,17.47a13,13,0,0,1-.65,1.5c0,.1,0-.07.08,0-3.34-.68-6.51-5.36-8.26-8.7-2.36-4.5-9.17-.51-6.81,4,3.46,6.6,15.55,19.23,21.91,8.59,1.71-2.86,2.2-6.49,2.84-9.7,1.27-6.41,2.52-12.81,4-19.17,1.3-5.48,6.05-15.63,1-20.48-4.6-4.39-12.42-.82-16.85,2-12.89,8.07-19.18,24.7-12.9,38.8C418.56,3080.45,425.36,3076.44,423.31,3071.83Z"/><path class="cls-5" d="M440.62,2994.05c-5.15-9-2.08-20.79,5.29-27.71a22.79,22.79,0,0,1,6.23-4.29c2.9-1.27,2.51-1.32,2.26,1.7-.47,5.71-1.7,11.43-2.36,17.13-.72,6.21-.79,12.67-2,18.81-.12.59-.41,1.66-.4,1.59-.11.64-.25.24-.09.25-2.72-.19-6.81-4.31-8.89-7.47-2.78-4.22-9.62-.28-6.81,4,4.08,6.2,16.94,17.91,22.69,7.05,1.59-3,1.69-6.79,2-10.08.68-6.71,1.26-13.43,2.16-20.12.77-5.7,4.53-16.32-1.6-20.38-5.21-3.45-12.49,1.15-16.54,4.37C431.07,2968,426.35,2985,433.8,2998,436.32,3002.44,443.14,2998.47,440.62,2994.05Z"/><path class="cls-5" d="M437.39,3001.41c-5.1-9.79-.58-22.33,8-28.65,1.71-1.26,4.19-3,6.36-3.28,1.5-.21.51-.58.8.34s-.38,2.94-.55,3.88c-1,5.43-2,10.84-2.82,16.3-.87,5.83-1.15,11.94-2.61,17.66-.15.59-.5,1.58-.5,1.55-.25.86-.43,0,.18.06-3.42-.5-6.8-4.45-8.87-7.87-2.63-4.34-9.45-.38-6.81,4,3.84,6.35,16.42,18.44,22.41,7.65,1.62-2.92,1.86-6.6,2.3-9.83.88-6.47,1.73-12.94,2.85-19.38,1-5.56,5.08-15.92-.05-20.57-4.76-4.32-12.39-.33-16.67,2.69-12.33,8.7-18,25.75-10.83,39.44C432.92,3009.9,439.74,3005.92,437.39,3001.41Z"/><path class="cls-5" d="M448.85,3011.07c5.31,9.5,1.53,21.91-6.63,28.62a19.17,19.17,0,0,1-6.59,3.79c-1.47.41-.57.84-.9-.08s.23-3,.38-4c.79-5.35,1.65-10.67,2.3-16,.73-6,.84-12.18,2.11-18.07.13-.59.42-1.6.42-1.58.13-.66.22-.24.1-.24,2.67,0,6.86,4.55,8.82,7.59,2.75,4.25,9.58.3,6.81-4-4-6.23-16.83-18-22.63-7.18-1.6,3-1.72,6.78-2.08,10.07-.7,6.43-1.3,12.86-2.21,19.27-.8,5.6-4.6,16,.56,20.6,4.84,4.3,12.36.07,16.57-3,12.08-8.95,17.33-26.26,9.81-39.71C453.18,3002.65,446.37,3006.63,448.85,3011.07Z"/><path class="cls-5" d="M459.07,2937.44c5.26,9,2.35,20.75-4.94,27.78a22.93,22.93,0,0,1-6.18,4.37c-1.12.51-1.91.89-2.45.34-.28-.29.36-3.74.36-3.74.67-5.36,1.47-10.7,2-16.08.61-6,.53-12.24,1.74-18.11.1-.47.49-1.86.5-1.89s0,0-.06,0a13.91,13.91,0,0,1,3.88,1.74,23.15,23.15,0,0,1,5.11,5.58c2.82,4.19,9.66.24,6.81-4-4.15-6.15-17.08-17.76-22.77-6.88-1.57,3-1.63,6.81-1.93,10.1-.59,6.51-1.08,13-1.87,19.52-.69,5.74-4.53,16.93,1.71,21,5.24,3.42,12.47-1.24,16.49-4.5,11.37-9.22,15.94-26.32,8.36-39.25C463.32,2929.07,456.5,2933,459.07,2937.44Z"/><path class="cls-5" d="M472.53,2873.13c4.88,9.9-.06,22.36-8.76,28.43-1.69,1.17-4.3,3-6.44,3.12-1.54.1-.53.62-.68-.66a12.93,12.93,0,0,1,.63-3.68c1.14-5.4,2.25-10.8,3.18-16.23,1-5.78,1.34-12,3-17.6.28-.94.34-.91.55-1.53,0-.09-.06,0-.14,0,3.31.17,6.84,5,8.65,8.18,2.53,4.4,9.35.43,6.81-4-3.7-6.44-16.12-18.72-22.24-8-1.65,2.9-2,6.56-2.5,9.79-1,6.45-2,12.9-3.28,19.31-1.09,5.53-5.44,15.82-.32,20.55,4.69,4.34,12.42.52,16.74-2.42,12.52-8.51,18.43-25.34,11.59-39.23C477.1,2864.59,470.3,2868.58,472.53,2873.13Z"/><path class="cls-5" d="M448.75,2927.32c-3.55-10.33,2-21.81,11.27-27.12a18.45,18.45,0,0,1,6.27-2.52c3.17-.44,1.77,1.45.93,3.88-1.8,5.22-3.62,10.42-5.24,15.7-1.77,5.74-2.9,12-5.31,17.5a14.22,14.22,0,0,1-.85,1.49c0-.08,0-.38.31-.25-3.54-1.54-5.87-5-7.39-8.69-1.93-4.62-9.57-2.59-7.61,2.1,2.88,6.91,13.71,21.44,21.28,11.12,1.88-2.56,2.69-5.92,3.58-8.91,1.78-6,3.47-12,5.42-18,1.82-5.57,7.61-15.33,3.55-21-3.71-5.21-11.63-2.71-16.33-.54-13.66,6.31-22.54,22.69-17.5,37.36C442.78,2934.2,450.41,2932.14,448.75,2927.32Z"/><path class="cls-5" d="M465.4,2866.84c-4.49-10.08,1.17-22.38,10.07-28,1.59-1,4.54-3,6.57-2.83,1.59.12.51-.57.49.87a16.87,16.87,0,0,1-.79,3.65c-1.35,5.35-2.67,10.7-3.81,16.1-1.21,5.71-1.73,11.95-3.69,17.47a13,13,0,0,1-.65,1.5c0,.1,0-.07.08,0-3.34-.68-6.51-5.36-8.26-8.7-2.36-4.5-9.17-.51-6.81,4,3.46,6.6,15.55,19.23,21.91,8.59,1.71-2.86,2.2-6.49,2.84-9.7,1.27-6.41,2.52-12.81,4-19.17,1.3-5.48,6.05-15.63,1-20.48-4.6-4.39-12.42-.82-16.85,2-12.89,8.07-19.18,24.7-12.9,38.8C460.65,2875.45,467.45,2871.44,465.4,2866.84Z"/><path class="cls-5" d="M465.4,2866.84c-4.49-10.08,1.17-22.38,10.07-28,1.59-1,4.54-3,6.57-2.83,1.59.12.51-.57.49.87a16.87,16.87,0,0,1-.79,3.65c-1.35,5.35-2.67,10.7-3.81,16.1-1.21,5.71-1.73,11.95-3.69,17.47a13,13,0,0,1-.65,1.5c0,.1,0-.07.08,0-3.34-.68-6.51-5.36-8.26-8.7-2.36-4.5-9.17-.51-6.81,4,3.46,6.6,15.55,19.23,21.91,8.59,1.71-2.86,2.2-6.49,2.84-9.7,1.27-6.41,2.52-12.81,4-19.17,1.3-5.48,6.05-15.63,1-20.48-4.6-4.39-12.42-.82-16.85,2-12.89,8.07-19.18,24.7-12.9,38.8C460.65,2875.45,467.45,2871.44,465.4,2866.84Z"/><path class="cls-5" d="M465.4,2866.84c-4.49-10.08,1.17-22.38,10.07-28,1.59-1,4.54-3,6.57-2.83,1.59.12.51-.57.49.87a16.87,16.87,0,0,1-.79,3.65c-1.35,5.35-2.67,10.7-3.81,16.1-1.21,5.71-1.73,11.95-3.69,17.47a13,13,0,0,1-.65,1.5c0,.1,0-.07.08,0-3.34-.68-6.51-5.36-8.26-8.7-2.36-4.5-9.17-.51-6.81,4,3.46,6.6,15.55,19.23,21.91,8.59,1.71-2.86,2.2-6.49,2.84-9.7,1.27-6.41,2.52-12.81,4-19.17,1.3-5.48,6.05-15.63,1-20.48-4.6-4.39-12.42-.82-16.85,2-12.89,8.07-19.18,24.7-12.9,38.8C460.65,2875.45,467.45,2871.44,465.4,2866.84Z"/><path class="cls-5" d="M465.4,2866.84c-4.49-10.08,1.17-22.38,10.07-28,1.59-1,4.54-3,6.57-2.83,1.59.12.51-.57.49.87a16.87,16.87,0,0,1-.79,3.65c-1.35,5.35-2.67,10.7-3.81,16.1-1.21,5.71-1.73,11.95-3.69,17.47a13,13,0,0,1-.65,1.5c0,.1,0-.07.08,0-3.34-.68-6.51-5.36-8.26-8.7-2.36-4.5-9.17-.51-6.81,4,3.46,6.6,15.55,19.23,21.91,8.59,1.71-2.86,2.2-6.49,2.84-9.7,1.27-6.41,2.52-12.81,4-19.17,1.3-5.48,6.05-15.63,1-20.48-4.6-4.39-12.42-.82-16.85,2-12.89,8.07-19.18,24.7-12.9,38.8C460.65,2875.45,467.45,2871.44,465.4,2866.84Z"/><path class="cls-5" d="M465.4,2866.84c-4.49-10.08,1.17-22.38,10.07-28,1.59-1,4.54-3,6.57-2.83,1.59.12.51-.57.49.87a16.87,16.87,0,0,1-.79,3.65c-1.35,5.35-2.67,10.7-3.81,16.1-1.21,5.71-1.73,11.95-3.69,17.47a13,13,0,0,1-.65,1.5c0,.1,0-.07.08,0-3.34-.68-6.51-5.36-8.26-8.7-2.36-4.5-9.17-.51-6.81,4,3.46,6.6,15.55,19.23,21.91,8.59,1.71-2.86,2.2-6.49,2.84-9.7,1.27-6.41,2.52-12.81,4-19.17,1.3-5.48,6.05-15.63,1-20.48-4.6-4.39-12.42-.82-16.85,2-12.89,8.07-19.18,24.7-12.9,38.8C460.65,2875.45,467.45,2871.44,465.4,2866.84Z"/><path class="cls-5" d="M482.7,2762.56c-5.15-9-2.08-20.79,5.29-27.71a22.79,22.79,0,0,1,6.23-4.29c2.9-1.27,2.51-1.32,2.26,1.7-.47,5.71-1.7,11.43-2.36,17.13-.72,6.21-.79,12.67-2,18.81-.12.59-.41,1.66-.4,1.59-.11.64-.25.24-.09.25-2.72-.19-6.81-4.31-8.89-7.47-2.78-4.22-9.62-.28-6.81,4,4.08,6.2,16.94,17.91,22.69,7.05,1.59-3,1.69-6.79,2-10.08.68-6.71,1.26-13.43,2.16-20.12.77-5.7,4.53-16.32-1.6-20.38-5.21-3.45-12.49,1.15-16.54,4.37-11.46,9.13-16.19,26.13-8.73,39.16C478.41,2771,485.23,2767,482.7,2762.56Z"/><path class="cls-5" d="M479.48,2796.41c-5.1-9.79-.58-22.33,8-28.65,1.71-1.26,4.19-3,6.36-3.28,1.5-.21.51-.58.8.34s-.38,2.94-.55,3.88c-1,5.43-2,10.84-2.82,16.3-.87,5.83-1.15,11.94-2.61,17.66-.15.59-.5,1.58-.5,1.55-.25.86-.43,0,.18.06-3.42-.5-6.8-4.45-8.87-7.87-2.63-4.34-9.45-.38-6.81,4,3.84,6.35,16.42,18.44,22.41,7.65,1.62-2.92,1.86-6.6,2.3-9.83.88-6.47,1.73-12.94,2.85-19.38,1-5.56,5.08-15.92-.05-20.57-4.76-4.32-12.39-.33-16.67,2.69-12.33,8.7-18,25.75-10.83,39.44C475,2804.9,481.83,2800.92,479.48,2796.41Z"/><path class="cls-5" d="M490.94,2806.07c5.31,9.5,1.53,21.91-6.63,28.62a19.17,19.17,0,0,1-6.59,3.79c-1.47.41-.57.84-.9-.08s.23-3,.38-4c.79-5.35,1.65-10.67,2.3-16,.73-6,.84-12.18,2.11-18.07.13-.59.42-1.6.42-1.58.13-.66.22-.24.1-.24,2.67,0,6.86,4.55,8.82,7.59,2.75,4.25,9.58.3,6.81-4-4-6.23-16.83-18-22.63-7.18-1.6,3-1.72,6.78-2.08,10.07-.7,6.43-1.3,12.86-2.21,19.27-.8,5.6-4.6,16,.56,20.6,4.84,4.3,12.36.07,16.57-3,12.08-8.95,17.33-26.26,9.81-39.71C495.27,2797.66,488.46,2801.63,490.94,2806.07Z"/><path class="cls-5" d="M501.16,2705.94c5.26,9,2.35,20.75-4.94,27.78a22.93,22.93,0,0,1-6.18,4.37c-1.12.51-1.91.89-2.45.34-.28-.29.36-3.74.36-3.74.67-5.36,1.47-10.7,2-16.08.61-6,.53-12.24,1.74-18.11.1-.47.49-1.86.5-1.89s0,0-.06,0a13.91,13.91,0,0,1,3.88,1.74,23.15,23.15,0,0,1,5.11,5.58c2.82,4.19,9.66.24,6.81-4-4.15-6.15-17.08-17.76-22.77-6.88-1.57,3-1.63,6.81-1.93,10.1-.59,6.51-1.08,13-1.87,19.52-.69,5.74-4.53,16.93,1.71,21,5.24,3.42,12.47-1.24,16.49-4.5C511,2732,515.56,2714.89,508,2702,505.41,2697.58,498.58,2701.55,501.16,2705.94Z"/><ellipse class="cls-19" cx="422.51" cy="3114.31" rx="11.16" ry="5.15"/><ellipse class="cls-19" cx="439.67" cy="3119.46" rx="11.16" ry="5.15"/><path class="cls-5" d="M428.24,3111.88a55.68,55.68,0,0,1-2.32-22c.25-2.44,3.68-19.09,8.63-14.62,1.85,1.67,1,6.71,1,8.87v11.8l0,23.59c0,5.08,7.89,5.09,7.89,0l0-35.39c0-7-.33-17.84-10-17.54-8,.25-12.8,9.21-14.24,16a62.64,62.64,0,0,0,1.5,31.35c1.48,4.84,9.1,2.78,7.61-2.1Z"/><path class="cls-19" d="M352.76,3129.23c-29.46-2.73-57.19,10.42-80.91,26.7-22.29,15.29-43.52,33.47-58.9,55.88a118.36,118.36,0,0,0-18.1,40.51c-.74,3.23,4.23,4.6,5,1.37,7.45-32.61,30.22-58.42,55.56-79,27.23-22.16,60.77-43.67,97.39-40.27,3.3.31,3.28-4.84,0-5.15Z"/><path class="cls-19" d="M531.22,3233.79A167.49,167.49,0,0,1,562.71,3336a163.67,163.67,0,0,1-35.22,96.15,165.67,165.67,0,0,1-42.4,38c-2.8,1.75-.22,6.21,2.6,4.45A172.34,172.34,0,0,0,554.74,3396a168.64,168.64,0,0,0,7.91-106.83,170.37,170.37,0,0,0-27-58c-1.92-2.66-6.39-.1-4.45,2.6Z"/><path class="cls-19" d="M387.19,3120.92c-1.79,16,12.73,28.33,25.88,34.46,13.84,6.45,31.36,6.95,42.13-5.41,2.17-2.49-1.46-6.14-3.64-3.64-9.69,11.11-25.26,9.9-37.42,3.86-11.07-5.5-23.32-15.61-21.8-29.27.37-3.29-4.78-3.26-5.15,0Z"/><path class="cls-19" d="M261.81,3448.26c1.44,20.94,15.78,38.51,34.09,47.84,22.35,11.4,48.53,10.3,72.6,6.32,3.26-.54,1.88-5.5-1.37-5-22.14,3.66-46.56,4.87-67.32-5.15-17.2-8.3-31.5-24.4-32.85-44-.23-3.29-5.38-3.31-5.15,0Z"/><polygon class="cls-20" points="1863.23 3400.73 1867.82 3369.96 1866.87 3369.55 1866.83 3368.8 1341.47 3201.17 1341.55 3202.68 1342.31 3202.92 1342.27 3203.78 1862.24 3401.04 1862.28 3400.31 1863.23 3400.73"/><polygon class="cls-21" points="1884.19 3294.38 1893.76 3235.34 1892.76 3235.06 1892.82 3233.7 1326.55 3194.22 1326.42 3196.95 1327.24 3197.01 1327.08 3198.61 1883.05 3295.46 1883.19 3294.11 1884.19 3294.38"/><polygon class="cls-22" points="1879.85 3316.44 1886.91 3268.45 1885.93 3268.16 1885.94 3267.03 1343.7 3200.18 1343.68 3202.43 1344.47 3202.52 1344.36 3203.83 1878.79 3317.26 1878.87 3316.15 1879.85 3316.44"/><polygon class="cls-23" points="1868.99 3371.51 1872.22 3341.61 1871.26 3341.25 1871.19 3340.53 1342.04 3201.48 1342.19 3202.93 1342.95 3203.13 1342.95 3203.96 1868.03 3371.85 1868.03 3371.14 1868.99 3371.51"/><polygon class="cls-24" points="1860.61 3413.99 1863.52 3389.44 1862.61 3389.03 1862.54 3388.41 1361.01 3211.19 1361.16 3212.41 1361.88 3212.67 1361.88 3213.36 1859.7 3414.17 1859.7 3413.58 1860.61 3413.99"/><polygon class="cls-25" points="1874.36 3344.28 1878.55 3308.22 1877.58 3307.9 1877.53 3307.04 1343 3202.89 1343.11 3204.6 1343.88 3204.76 1343.86 3205.75 1873.37 3344.81 1873.39 3343.97 1874.36 3344.28"/><polygon class="cls-26" points="1369.2 3057.78 1161.61 3450.87 1565.75 3450.87 1369.2 3057.78"/><polygon class="cls-6" points="1325.22 3245.94 918.35 3327.65 918.79 3328.53 917.89 3328.66 918.46 3330.17 1328.69 3270.68 1325.22 3245.94"/><path class="cls-27" d="M2159.73,2223.32A389.49,389.49,0,0,1,2176,2123.08c13.1-43.65,33.63-82.91,69.33-112.57,43.27-35.95,94.43-46.22,149-44.54,15.85.49,31.84,2.89,47.52,1.54,45.36-3.89,90-1.8,133.49,12.39,49.07,16,87,45.59,109.4,93.07,13,27.51,19,57.2,24.91,86.72,12.89,64.47,16.33,129.92,17.56,195.45,2.09,111.77-5.29,223.12-16.25,334.27-1.26,12.78-2.85,25.53-4.41,39.37-19.92-2.21-38.94-3.86-57.82-6.53-9.27-1.31-18.49-2.85-27.61-4.76q-.29-2.41-.56-4.79c-1.89-17.13-2.61-34.35-3.69-51.54-1.43-22.84-3.78-34.43-5.79-51.16-7.41-61.71,3.7-120.86,10.58-157.51,6-32.07,9-48.11,14.85-66.75,10.77-34.5,10.72-60.81,16.52-97.09a12.85,12.85,0,0,0-2.45-9.35c-13.27-15.15-23.4-28.76-27.41-31.16-19.36-11.57-35.68-5.33-80-4-11.52.34-28.86-.42-63.54-1.94-59.41-2.6-61.13-5.9-93.91-6-46-.07-69.05-.1-93.13,11.9-12.43,6.2-41.11,23.39-61.69,68.28a684,684,0,0,1,17,78.57c1,6.36,2,13.83,4.07,25.17,5.1,27.76,10.73,47.09,12.75,54.53,11.06,40.77,10.62,82.29,10.25,117.85-.31,29.51-2.63,40.46-.93,72.79,1.06,20.22,3.06,36.74,4.6,47.6-32.87,9-66.72,12.58-101.46,15.17-.52-3.5-1-5.86-1.21-8.24q-3.52-35.4-7-70.81c-7.78-80.28-13.32-160.74-13.56-241.37C2155.29,2346.22,2157.84,2284.76,2159.73,2223.32Z"/><path d="M2633.92,2282.26c1.86-.15,7.23-.65,11.07,2.65,5.52,4.74,4.6,14.71,4,22.69-1.76,24.89-3.71,49.85-7.57,74.48-4.64,29.6-21.78,45.52-51.48,48.41-16.74,1.63-33.77.81-50.65.41-37-.87-63.25-16.55-73.87-53.91-2.6-9.16-5.53-18.51-10.23-26.68-2.92-5.07-9.32-10.95-14.37-11.15-4.43-.18-9.18,7-13.73,11-.49.43-.56,1.34-.8,2-25.8,73.49-83.44,82.18-155.37,71.38-21.52-3.23-30.54-20.67-33.48-39.15-4.15-26.06-5-52.66-6.86-79.05-1.2-17.26,6-25.95,24.68-24.72,54.17,3.57,108.36,7.31,162.6,9.11a504.65,504.65,0,0,0,90-3.12C2549.62,2281.34,2592,2285.53,2633.92,2282.26Z"/><rect class="cls-27" x="2154.59" y="1950.26" width="120.87" height="94.28" rx="29.01" ry="29.01" transform="translate(-767.56 2008.18) rotate(-42.25)"/><path class="cls-27" d="M1953.86,2023.08a29,29,0,0,1,21.84-10h178.89a29.09,29.09,0,0,1,29,29V2221a28.92,28.92,0,0,1-8.52,20.49"/><path class="cls-27" d="M2462.75,1958.66a28.92,28.92,0,0,1-20.49,8.52H2263.38a29.09,29.09,0,0,1-29-29V1759.28a28.87,28.87,0,0,1,7.17-19"/><path class="cls-28" d="M2008.59,2037.45a153.08,153.08,0,0,1,86,9.6c3.57,1.49,5.12-4.33,1.6-5.8a158.66,158.66,0,0,0-89.24-9.6c-3.8.68-2.19,6.48,1.6,5.8Z"/><path class="cls-28" d="M2170.7,1996.1c-2.86,13.41,7.93,27,21.77,26.72,3.87-.07,3.88-6.08,0-6-9.77.17-18-9.43-16-19.11.81-3.77-5-5.39-5.8-1.6Z"/><path class="cls-28" d="M2285,1941.57a398.89,398.89,0,0,0,98.64-3.15c3.81-.6,2.19-6.39-1.6-5.8a392.73,392.73,0,0,1-97,2.94c-3.85-.36-3.83,5.66,0,6Z"/><path class="cls-28" d="M2314.51,2000.77c-23.44-2.06-42,16.29-56,32.79a248.67,248.67,0,0,0-38.78,63c-1.5,3.52,3.68,6.59,5.19,3a243.84,243.84,0,0,1,35.62-59.15c13.27-16.17,30.95-35.7,53.91-33.68,3.85.34,3.83-5.68,0-6Z"/><path class="cls-28" d="M2602.28,2071.29a102.25,102.25,0,0,1,42.1,80.75c.06,3.87,6.07,3.88,6,0a108.59,108.59,0,0,0-45.08-85.94c-3.15-2.26-6.15,3-3,5.19Z"/><path class="cls-28" d="M2609.41,2218.3a145,145,0,0,0-36.67-92.52c-2.58-2.9-6.82,1.37-4.25,4.25a138.52,138.52,0,0,1,34.91,88.27c.1,3.86,6.12,3.88,6,0Z"/><path class="cls-28" d="M2292.42,2217.19c-8.55-31.46,6.14-66.74,34.45-82.87,3.36-1.92.34-7.11-3-5.19-30.63,17.46-46.46,55.65-37.21,89.66,1,3.73,6.82,2.15,5.8-1.6Z"/><path class="cls-28" d="M2482.46,2152v61c0,3.87,6,3.88,6,0v-61c0-3.87-6-3.88-6,0Z"/><path class="cls-28" d="M2695.24,2467.71c-2.08,36.65,3.76,73.65-1.68,110.13-5.17,34.7-21.35,66.24-37.26,97.06-1.77,3.43,3.41,6.48,5.19,3,16.13-31.25,32.6-63.32,37.87-98.5,5.55-37.05-.21-74.51,1.9-111.73.22-3.87-5.8-3.85-6,0Z"/><path class="cls-28" d="M2193.17,2281.05c1.2,55.48-22.82,113.85,2.64,167,1.67,3.49,6.86.44,5.19-3-24.76-51.69-.65-110-1.82-164-.08-3.86-6.1-3.88-6,0Z"/><path d="M2460.33,3448.44c3-113.11,6.75-225.61,1.81-338.43,16.66,9.23,28.37,24.27,40,39.24,34.39-22.25,66.58-112.76,20-176.26,6,1.23,11,1.91,15.78,3.29,20.29,5.8,36.22,18.25,49.55,34.05,9.13,10.82,17.34,22.41,26,33.63,2.52,3.28,5.15,6.48,8.45,10.62,1-8.57,1.88-16,2.86-23.5,3.35-25.44,4.19-50.85-.89-76.17a186.63,186.63,0,0,0-33.41-74.66c-.69-.93-1.33-1.9-2.07-2.95,13.89,1.06,49.95,28.35,66.12,49.93,17.23,23,26.48,49.4,33.71,77.39,1.69-4.84,3.54-9.63,5-14.52s2.67-10,4-15,2.81-10.22,4.18-15.19c.76,0,1.23-.14,1.37,0q24.47,27.73,48.89,55.5c.11.12.2.27.3.4,5.28,6.73,7.24,13.33,5.8,22.73-4.82,31.44-7.82,63.17-11.49,94.79-.8,6.95-1.47,13.91-1.65,21.16,14.59-16.44,22.63-37.57,39-54.63-1.23,10-2,18.55-3.36,27-4.53,28.28-8.77,56.63-14.16,84.75-2.08,10.83-6.85,21.16-10.62,31.63-.88,2.46-2.21,5.17-4.16,6.75-5.53,4.48-4.69,9.57-3.39,15.65,4.3,20.18,9.21,40.35,11.65,60.79,4.23,35.4-.25,69.58-20.07,100.4-2.7,4.2-5.87,8.09-8.82,12.13a4.47,4.47,0,0,1-2,1.74c.62-35.24-5.5-68.74-21.42-100.61-3.41,10.3-6.68,20.41-10.1,30.48-9.62,28.29-20.27,56.13-37.59,80.83-12.08,17.22-26.51,31.82-46.89,39-6,2.12-12.47,3.13-19,4.73,2-8,4.4-14.86,5.44-21.94,3-20.68,1.44-41.36-2.54-61.7-3.22-16.45-7.69-32.71-12.44-48.8-2.84-9.63-4.32-9.9-14.17-7.48a60.24,60.24,0,0,0-29.16,16.71c-10.9,11.23-20.95,23.28-31.43,34.92-8.81,9.78-17.41,19.76-26.67,29.09A45,45,0,0,1,2460.33,3448.44Z"/><path d="M2178.11,3000.07c14-67.77,53.69-109,105.86-125.57-1.46,2-2.44,3.42-3.45,4.8-31,42.31-43.26,89.83-39.51,141.81.67,9.3,1.31,18.59,2,28.79,2-2.22,3.79-4,5.34-6,11.58-14.63,22.51-29.83,34.83-43.8,13.38-15.17,30.13-25.66,50.32-29.84,2.88-.6,5.81-1,9.66-1.58-25.12,35.91-28.84,74.38-18,114.79,6.42,23.87,17.24,45.39,37.53,61.81,11.91-14.73,23.83-29,40.31-38.26-6.57,113.92-4.91,227.71-3.62,342.69-4.36-2.07-9.07-3.23-12.31-6.07-8-7-16-14.15-22.67-22.34-10.61-13-19.81-27.24-30.23-40.44a156,156,0,0,0-18.76-19.32A48.88,48.88,0,0,0,2290.9,3350c-4.22-.74-7.1.15-8.44,4.56-3.52,11.61-8,23-10.49,34.83a414.75,414.75,0,0,0-6.77,46.44c-1.66,18.33-1.26,36.67,7.09,54.31a71.72,71.72,0,0,1-37.94-13.44c-19.86-13.88-32.75-33.42-43.63-54.48-12.9-25-21.42-51.63-30.1-78.23-.82-2.5-1.7-5-2.79-8.19-16,32-22,65.28-20.7,101.58-2-2.26-3.21-3.46-4.25-4.76-18.44-23.14-26.8-49.92-28.38-79.11-1.61-29.66,4.09-58.39,11.32-86.91.41-1.61.74-3.25,1.23-4.84,1.84-6,1.56-10.69-3-16.29-9.15-11.15-12.79-25.32-15.27-39.21-5.65-31.63-10.26-63.45-15.25-95.19-.75-4.76-1.27-9.55-2.07-15.69,16.39,16.87,24.41,38.24,39.52,56.12-.54-10.47-.95-19.55-1.47-28.62-1.59-27.62-2.61-55.3-5.21-82.83a36.72,36.72,0,0,1,4.61-22.21c9.6-17.72,22.33-33.14,35.43-48.29,3.79-4.39,7.61-8.74,12.08-13.87l9.92,44.63Z"/><path class="cls-8" d="M2364.63,3237c-1,3.92-9.89,4.89-27.57,6.66-13.07,1.31-19.61,2-25.54,1.56-18.24-1.27-44.75-9.12-46.22-21.74-.2-1.75,1.14-4.95,3.83-11.28,5.81-13.66,8.71-20.49,11.87-22.36,7-4.15,18.43,1.94,41.23,14.14a226.44,226.44,0,0,1,23.8,15C2359,3228.29,2365.65,3233.14,2364.63,3237Z"/><path class="cls-8" d="M2489.36,3237c1,3.92,9.89,4.89,27.57,6.66,13.07,1.31,19.61,2,25.54,1.56,18.24-1.27,44.75-9.12,46.22-21.74.2-1.75-1.14-4.95-3.83-11.28-5.81-13.66-8.71-20.49-11.87-22.36-7-4.15-18.43,1.94-41.23,14.14a226.44,226.44,0,0,0-23.8,15C2495,3228.29,2488.35,3233.14,2489.36,3237Z"/><path d="M2538.76,2869.15,2435.6,3140.5l-136.79-278.07a578,578,0,0,1,239.95,6.73Z"/><path class="cls-5" d="M2336,2882.15c10.7,28.63,25.19,55.66,39,82.89l44.21,87.38c1,1.9,3.82.23,2.86-1.67l-43.31-85.6c-13.94-27.55-28.7-54.91-39.54-83.88-.74-2-3.94-1.12-3.19.88Z"/><path class="cls-5" d="M2363.44,2879.13c38.68-2.7,80.29-5.19,115.34,14.43,1.86,1,3.53-1.82,1.67-2.86-35.61-19.92-77.7-17.63-117-14.88-2.11.15-2.13,3.46,0,3.31Z"/><path class="cls-5" d="M2131.1,3279a178.58,178.58,0,0,0-9.86,90.12c.31,2.1,3.5,1.21,3.19-.88a175.29,175.29,0,0,1,9.86-88.36c.76-2-2.44-2.85-3.19-.88Z"/><path class="cls-5" d="M2180,3346.08a147.58,147.58,0,0,0,47.5,95c1.58,1.43,3.92-.91,2.34-2.34a144.15,144.15,0,0,1-46.53-92.69c-.2-2.1-3.51-2.12-3.31,0Z"/><path class="cls-5" d="M2607.52,3353.89c.07,33.21,24.31,67.4,9.89,100.2-.85,1.93,2,3.62,2.86,1.67,14.9-33.9-9.37-67.71-9.44-101.87a1.66,1.66,0,0,0-3.31,0Z"/><path class="cls-5" d="M2487.74,3290.58l-4.25,112.49c-.08,2.13,3.23,2.13,3.31,0l4.25-112.49c.08-2.13-3.23-2.13-3.31,0Z"/><path class="cls-5" d="M2613.62,2909a224.58,224.58,0,0,1,43.66,125.5c.07,2.13,3.38,2.14,3.31,0a227.64,227.64,0,0,0-44.12-127.17c-1.25-1.7-4.13,0-2.86,1.67Z"/><path class="cls-5" d="M2498.8,3261a258.32,258.32,0,0,0,73.88-4.31c2.09-.43,1.2-3.62-.88-3.19a255.18,255.18,0,0,1-73,4.19c-2.12-.18-2.11,3.13,0,3.31Z"/><path class="cls-5" d="M2363.45,3252.86c-29.35.66-60.27,16.17-88.9,3.58-1.93-.85-3.62,2-1.67,2.86,29.52,13,60.37-2.45,90.57-3.13,2.13,0,2.14-3.36,0-3.31Z"/><path class="cls-5" d="M2248.86,2901.17c-19.45,10.12-28.9,31.05-35.93,50.73a346.61,346.61,0,0,0-18.08,79.86c-.23,2.12,3.09,2.1,3.31,0a343.42,343.42,0,0,1,16.71-75.4c6.89-20,15.85-42,35.67-52.33,1.89-1,.22-3.84-1.67-2.86Z"/><path class="cls-5" d="M2142.55,3007.47c-10.41,37.65-18.88,77.73-8.14,116.29a1.66,1.66,0,0,0,3.19-.88c-10.59-38-2.12-77.45,8.14-114.53a1.66,1.66,0,0,0-3.19-.88Z"/></g></g></svg>